{"glyphs":{"0":{"ha":717,"x_min":0,"x_max":717,"o":"m 474 1111 q 469 1111 474 1111 l 243 1111 q 90 1033 158 1094 q 0 821 0 950 l 0 11 q 114 -203 0 -110 q 233 -275 172 -251 l 474 -278 q 626 -200 558 -262 q 717 11 717 -118 l 717 821 q 626 1033 717 950 q 474 1111 558 1096 m 644 11 q 576 -149 644 -86 q 460 -207 525 -196 l 260 -208 q 72 11 85 -140 l 72 821 q 140 981 72 918 q 256 1040 192 1028 l 460 1040 q 576 981 525 1028 q 644 821 644 918 l 644 11 m 449 958 l 268 958 q 154 821 154 933 l 154 11 q 268 -125 154 -100 l 449 -125 q 563 11 563 -100 l 563 821 q 449 958 563 933 m 490 11 q 439 -54 490 -40 l 278 -54 q 226 11 226 -40 l 226 821 q 278 886 226 872 l 439 886 q 490 821 490 872 l 490 11 z "},"1":{"ha":424,"x_min":0,"x_max":424,"o":"m 350 -204 l 350 -204 l 349 1111 l 0 1111 l 1 811 q 65 883 15 871 l 122 883 l 126 -215 q 108 -243 118 -231 q 54 -278 85 -271 l 424 -278 q 350 -204 356 -262 m 274 -207 l 196 -207 l 194 956 l 72 956 l 72 1044 l 276 1042 l 274 -207 z "},"2":{"ha":672,"x_min":0,"x_max":672,"o":"m 431 1110 l 33 1111 l 35 719 q 200 883 58 872 l 200 885 l 394 886 q 447 821 447 872 l 447 606 q 392 539 447 551 q 247 526 369 549 l 243 525 q 90 447 157 510 q 0 238 0 365 l 3 -278 l 654 -278 l 654 8 q 618 -53 646 -29 l 226 -53 l 225 238 q 282 303 225 290 q 425 317 303 294 l 431 317 q 583 394 515 332 q 672 606 672 478 l 672 821 q 583 1032 672 950 q 431 1110 515 1094 m 601 606 q 533 446 601 508 q 417 388 482 400 l 415 388 l 269 374 q 206 346 235 367 q 154 238 154 307 l 156 -124 l 582 -124 l 582 -206 l 74 -206 l 72 238 q 139 396 71 333 q 256 454 190 443 l 257 456 l 403 468 q 467 497 438 475 q 519 606 519 536 l 519 821 q 406 957 519 933 l 106 957 l 106 1039 l 417 1039 q 533 981 482 1026 q 601 821 601 918 l 601 606 z "},"3":{"ha":611,"x_min":0,"x_max":611,"o":"m 368 1110 l 358 1111 l 0 1111 l 1 718 q 167 883 24 871 l 165 885 l 333 885 q 386 819 386 871 l 386 604 q 333 539 386 553 l 193 539 q 175 554 183 546 q 147 606 154 575 l 147 235 q 221 308 164 304 l 221 308 l 333 308 q 386 244 386 294 l 386 14 q 333 -51 386 -37 l 165 -50 l 167 -49 q 93 -28 125 -44 q 1 117 17 14 l 0 -278 l 368 -276 q 522 -199 453 -261 q 611 14 611 -115 l 611 244 q 549 424 611 346 q 611 604 611 503 l 611 819 q 522 1032 611 949 q 368 1110 454 1093 m 540 604 q 446 424 540 489 q 540 244 540 360 l 540 14 q 471 -147 540 -85 q 356 -206 419 -194 l 351 -206 l 72 -206 l 72 -124 l 343 -124 q 457 14 457 -99 l 457 244 q 343 381 457 356 l 219 381 l 219 467 l 343 467 q 457 604 457 492 l 457 819 q 343 957 457 932 l 72 957 l 72 1039 l 356 1039 q 471 979 421 1026 q 540 819 540 917 l 540 604 z "},"4":{"ha":843,"x_min":0,"x_max":843,"o":"m 579 253 l 579 868 l 249 253 l 579 253 m 508 324 l 368 324 l 508 585 l 508 324 m 733 1049 q 744 1075 736 1063 q 806 1111 765 1101 l 535 1108 l 0 103 l 508 100 l 508 -204 l 506 -204 q 497 -235 504 -222 q 433 -278 479 -267 l 804 -278 q 733 -219 744 -264 l 733 100 l 769 100 q 799 90 786 97 q 842 26 831 72 l 843 324 l 733 324 l 733 1049 m 771 253 l 771 171 l 661 171 l 661 -203 l 579 -203 l 579 171 l 118 174 l 579 1040 l 661 1039 l 661 253 l 771 253 z "},"5":{"ha":668,"x_min":0,"x_max":668,"o":"m 425 533 l 419 535 l 226 535 q 228 710 226 533 q 228 885 228 886 l 564 885 l 564 883 q 593 875 581 882 q 636 811 626 857 l 639 1111 l 3 1111 l 0 310 l 390 308 q 443 244 443 294 l 443 14 q 390 -51 443 -37 l 165 -50 l 165 -49 q 93 -28 124 -44 q 0 117 17 14 l 0 -278 l 425 -276 q 579 -199 510 -261 q 668 14 668 -115 l 668 244 q 578 456 668 372 q 425 533 511 517 m 597 14 q 528 -147 597 -85 q 413 -206 476 -194 l 408 -206 l 72 -206 l 72 -124 l 400 -124 q 514 14 514 -99 l 514 244 q 400 381 514 356 l 72 382 l 75 1039 l 568 1039 l 568 957 l 157 957 l 154 463 l 413 463 q 528 404 478 450 q 597 244 597 342 l 597 14 z "},"6":{"ha":743,"x_min":0,"x_max":743,"o":"m 508 531 l 496 535 l 243 533 q 226 529 243 533 l 226 821 q 279 886 226 871 l 550 886 l 550 885 q 624 865 592 882 q 715 719 700 824 l 713 1111 l 243 1110 q 90 1032 158 1094 q 0 821 0 950 l 0 13 q 90 -199 0 -117 q 243 -276 158 -261 l 250 -278 l 499 -276 q 653 -199 585 -261 q 743 13 743 -117 l 743 244 q 629 458 743 365 q 508 531 571 506 m 671 13 q 603 -147 671 -85 q 486 -206 551 -194 l 257 -206 q 140 -147 192 -194 q 72 13 72 -85 l 72 821 q 140 981 72 918 q 257 1039 192 1028 l 640 1039 l 640 957 l 268 957 q 154 821 154 932 l 154 415 q 257 463 201 453 l 482 463 q 671 244 657 396 l 671 13 m 474 381 l 268 381 q 154 244 154 356 l 154 13 q 268 -124 154 -99 l 475 -124 q 589 13 589 -99 l 589 244 q 474 381 589 356 m 517 13 q 464 -53 517 -39 l 279 -53 q 226 13 226 -39 l 226 244 q 279 308 226 294 l 464 308 q 517 244 517 294 l 517 13 z "},"7":{"ha":667,"x_min":0,"x_max":667,"o":"m 1 1111 l 0 814 q 72 886 15 881 l 378 886 l 100 -206 l 96 -204 q 88 -235 94 -222 q 24 -278 69 -267 l 399 -278 q 325 -204 331 -262 l 325 -204 l 667 1111 l 1 1111 m 251 -207 l 174 -207 l 469 958 l 72 958 l 72 1040 l 574 1040 l 251 -207 z "},"8":{"ha":757,"x_min":0,"x_max":757,"o":"m 728 604 l 728 821 q 638 1032 728 950 q 485 1110 569 1094 l 478 1111 l 274 1110 q 119 1032 188 1094 q 29 821 29 950 l 29 604 q 78 443 29 513 q 0 244 0 361 l 0 13 q 90 -199 0 -117 q 243 -276 158 -261 l 250 -278 l 514 -276 q 668 -199 600 -261 q 757 13 757 -117 l 757 244 q 681 443 757 361 q 728 604 728 513 m 686 244 l 686 13 q 617 -147 686 -85 q 501 -206 565 -194 l 257 -206 q 140 -147 192 -194 q 72 13 72 -85 l 72 244 q 182 435 72 371 q 101 604 101 499 l 101 821 q 169 981 101 918 q 286 1039 221 1028 l 471 1039 q 588 981 536 1028 q 656 821 656 918 l 656 604 q 575 435 656 499 q 686 244 686 371 m 489 381 l 268 381 q 154 244 154 356 l 154 13 q 268 -124 154 -99 l 489 -124 q 603 13 603 -99 l 603 244 q 489 381 603 356 m 532 13 q 479 -53 532 -39 l 279 -53 q 226 13 226 -39 l 226 244 q 279 308 226 294 l 479 308 q 532 244 532 294 l 532 13 m 299 467 l 460 467 q 574 604 574 492 l 574 821 q 460 957 574 932 l 299 957 q 183 821 183 932 l 183 604 q 299 467 183 492 m 256 821 q 308 886 256 872 l 449 886 q 501 821 501 872 l 501 604 q 449 539 501 553 l 308 539 q 256 604 256 553 l 256 821 z "},"9":{"ha":728,"x_min":0,"x_max":728,"o":"m 460 957 l 268 957 q 154 819 154 932 l 154 589 q 268 453 154 478 l 460 453 q 574 589 574 478 l 574 819 q 460 957 574 932 m 501 589 q 449 525 501 539 l 279 525 q 226 589 226 539 l 226 819 q 279 885 226 871 l 449 885 q 501 819 501 871 l 501 589 m 476 1111 l 472 1111 l 467 1111 l 243 1110 q 90 1032 158 1093 q 0 819 0 949 l 0 589 q 90 378 0 461 q 243 300 157 317 q 247 300 243 300 l 253 299 l 483 300 q 501 304 485 300 l 501 14 q 449 -51 501 -37 l 279 -51 q 226 14 226 -37 l 226 26 q 244 54 233 42 q 299 89 268 82 l 0 85 l 0 14 q 90 -199 0 -115 q 243 -276 158 -261 q 254 -278 243 -276 l 483 -276 q 638 -199 569 -261 q 728 14 728 -115 l 728 819 q 635 1036 728 954 q 476 1111 565 1099 m 656 14 q 588 -147 656 -85 q 471 -206 536 -194 l 468 -206 l 257 -206 q 140 -147 192 -194 q 72 14 72 -85 l 154 14 q 268 -124 154 -99 l 460 -124 q 574 14 574 -99 l 574 418 q 471 371 526 382 l 468 371 l 257 371 q 140 429 192 383 q 72 589 72 492 l 72 819 q 140 979 72 917 q 257 1039 192 1026 l 468 1039 q 656 819 643 1015 l 656 14 z "},"\u001e":{"ha":694,"x_min":88,"x_max":608,"o":"m 88 0 l 88 1111 l 608 1111 l 608 0 l 88 0 m 174 88 l 521 88 l 521 1025 l 174 1025 l 174 88 z "},"\b":{"ha":0,"x_min":0,"x_max":0,"o":""},"\r":{"ha":243,"x_min":0,"x_max":0,"o":""},"\t":{"ha":243,"x_min":0,"x_max":0,"o":""},"!":{"ha":356,"x_min":-17,"x_max":351,"o":"m 351 -61 q 279 -1 289 -47 l 279 1050 q 299 1076 288 1065 q 351 1111 324 1104 l -17 1111 q 53 1061 32 1100 l 53 -11 q 38 -32 46 -22 q -17 -61 17 -54 l 53 -61 l 53 -71 l 53 -71 q 32 -143 32 -104 q 72 -238 32 -199 q 167 -278 111 -278 q 262 -238 222 -278 q 301 -143 301 -199 q 279 -68 301 -101 l 279 -61 l 351 -61 m 125 1043 l 207 1043 l 207 1 l 125 1 l 125 1043 m 167 -206 q 122 -187 140 -206 q 104 -143 104 -169 q 122 -99 104 -117 q 167 -81 140 -81 q 211 -99 193 -81 q 229 -143 229 -117 q 211 -187 229 -169 q 167 -206 193 -206 z "},"&":{"ha":568,"x_min":0,"x_max":568,"o":"m 263 750 l 504 750 q 531 738 519 746 q 568 678 558 718 l 565 975 l 433 975 l 433 1042 q 443 1071 435 1058 q 506 1111 463 1101 l 132 1111 q 206 1038 200 1096 l 208 1038 l 208 968 q 65 881 122 946 q 0 703 0 807 l 0 589 q 54 428 0 500 q 0 267 0 356 l 0 153 q 65 -25 0 49 q 208 -112 122 -90 l 208 -204 l 206 -204 q 196 -235 204 -221 q 132 -278 178 -267 l 506 -278 q 433 -208 442 -262 l 433 -118 l 565 -118 l 568 178 q 506 106 553 115 l 263 106 q 225 153 225 117 l 225 267 q 263 314 225 303 l 364 314 q 392 303 379 311 q 432 240 422 283 l 432 610 q 385 542 421 563 l 263 542 q 225 589 225 553 l 225 703 q 263 750 225 739 m 251 471 l 363 471 l 363 385 l 251 385 q 153 267 153 363 l 153 153 q 251 35 153 57 l 494 35 l 494 -47 l 361 -47 l 361 -199 l 279 -199 l 279 -47 l 243 -47 l 240 -47 q 133 7 181 -35 q 71 153 71 64 l 71 267 q 153 428 71 369 q 71 589 71 486 l 71 703 q 133 849 71 792 q 240 903 181 892 l 243 903 l 279 903 l 279 1038 l 361 1038 l 361 903 l 494 903 l 494 821 l 251 821 q 153 703 153 799 l 153 589 q 251 471 153 493 z "},"'":{"ha":285,"x_min":-1,"x_max":268,"o":"m 133 1114 q 38 1074 78 1114 q -1 978 -1 1035 q 33 890 -1 928 q 117 844 67 851 l 153 788 q 157 789 154 788 l 157 789 l 157 790 q 268 978 268 858 q 228 1074 268 1035 q 133 1114 189 1114 m 117 849 q 136 893 136 865 q 133 915 136 904 q 89 934 107 915 q 71 978 71 953 q 89 1023 71 1004 q 133 1042 107 1042 q 178 1023 160 1042 q 196 978 196 1004 q 186 932 194 953 q 117 849 167 878 z "},",":{"ha":285,"x_min":-1,"x_max":268,"o":"m 133 -3 q 38 -42 78 -3 q -1 -137 -1 -82 q 33 -227 -1 -189 q 117 -271 67 -265 l 153 -329 q 157 -326 154 -329 l 157 -328 l 157 -326 q 268 -137 268 -258 q 228 -42 268 -82 q 133 -3 189 -3 m 117 -267 q 136 -224 136 -251 q 133 -201 136 -212 q 89 -183 107 -201 q 71 -137 71 -164 q 89 -94 71 -112 q 133 -75 107 -75 q 178 -94 160 -75 q 196 -137 196 -112 q 186 -185 194 -162 q 117 -267 167 -237 z "},"-":{"ha":453,"x_min":0,"x_max":408,"o":"m 408 538 l 0 538 l 0 311 l 406 311 l 408 538 m 72 383 l 72 465 l 336 465 l 336 383 l 72 383 z "},".":{"ha":268,"x_min":-10,"x_max":260,"o":"m 125 -3 q 30 -42 69 -3 q -10 -137 -10 -82 q 30 -234 -10 -194 q 125 -274 69 -274 q 220 -234 181 -274 q 260 -137 260 -194 q 220 -42 260 -82 q 125 -3 181 -3 m 125 -201 q 81 -183 99 -201 q 63 -137 63 -164 q 81 -94 63 -112 q 125 -75 99 -75 q 169 -94 151 -75 q 188 -137 188 -112 q 169 -183 188 -164 q 125 -201 151 -201 z "},"?":{"ha":671,"x_min":-4,"x_max":668,"o":"m 424 1110 q 414 1111 424 1110 l -4 1111 l -4 885 l -4 885 l -4 722 q 129 885 17 851 l 389 885 q 442 819 442 871 l 442 603 q 382 536 442 550 q 319 521 382 536 l 322 522 q 171 444 238 507 q 81 233 81 363 l 81 13 l 79 13 q 69 -18 78 -4 q 6 -61 51 -51 l 89 -61 q 61 -143 61 -99 q 101 -238 61 -199 q 196 -278 140 -278 q 291 -238 251 -278 q 331 -143 331 -199 q 303 -61 331 -99 l 381 -61 q 307 4 318 -47 l 307 233 q 367 300 307 286 q 429 314 367 300 l 426 314 q 578 392 511 329 q 668 603 668 474 l 668 819 q 578 1032 668 949 q 424 1110 510 1093 m 196 -206 q 151 -187 169 -206 q 133 -143 133 -169 q 151 -99 133 -117 q 196 -81 169 -81 q 240 -99 222 -81 q 258 -143 258 -117 q 240 -187 258 -169 q 196 -206 222 -206 m 596 603 q 528 443 596 506 q 413 385 478 397 q 353 371 358 374 q 235 233 235 343 l 235 17 l 153 17 l 153 233 q 221 392 153 329 q 336 451 271 438 q 396 465 390 463 q 514 603 514 492 l 514 819 q 399 957 514 932 l 68 957 l 68 1039 l 411 1039 q 528 979 476 1026 q 596 819 596 917 l 596 603 z "},"A":{"ha":967,"x_min":0,"x_max":967,"o":"m 883 -231 l 601 1038 l 601 1038 q 675 1111 599 1082 l 300 1111 q 374 1039 376 1092 l 85 -226 q 63 -246 75 -236 q 0 -278 35 -268 l 394 -278 q 321 -204 317 -246 l 321 -204 l 381 57 l 589 57 l 647 -204 l 646 -204 q 572 -278 650 -246 l 967 -278 q 883 -231 897 -258 m 721 -204 l 646 129 l 324 129 l 247 -204 l 163 -204 l 447 1040 l 528 1040 l 804 -204 l 721 -204 m 342 211 l 628 211 l 486 842 l 342 211 m 432 283 l 486 517 l 538 283 l 432 283 z "},"B":{"ha":711,"x_min":0,"x_max":711,"o":"m 443 382 l 228 382 l 228 -122 l 443 -122 q 557 14 557 -97 l 557 246 q 443 382 557 357 m 486 14 q 433 -50 486 -36 l 299 -50 l 299 311 l 433 311 q 486 246 486 296 l 486 14 m 443 957 l 228 957 l 228 464 l 443 464 q 557 601 557 489 l 557 819 q 443 957 557 932 m 486 601 q 433 536 486 550 l 299 536 l 299 885 l 433 885 q 486 819 486 871 l 486 601 m 468 1110 q 458 1111 468 1110 l 451 1111 l 74 1110 l 74 1110 l 0 1110 q 74 1038 68 1079 l 74 -203 q 64 -228 72 -215 q 0 -276 46 -256 l 74 -276 l 74 -278 l 468 -274 q 621 -197 554 -258 q 711 14 711 -114 l 711 246 q 650 424 711 346 q 711 601 711 501 l 711 819 q 621 1032 711 949 q 468 1110 554 1094 m 639 601 q 549 424 639 488 q 639 246 639 358 l 639 14 q 571 -144 639 -83 q 456 -204 521 -192 l 451 -204 l 144 -206 l 144 1039 l 456 1039 q 571 981 519 1028 q 639 819 639 917 l 639 601 z "},"C":{"ha":611,"x_min":0,"x_max":611,"o":"m 611 719 l 610 1111 l 243 1110 q 90 1032 157 1093 q 0 821 0 949 l 0 13 q 90 -199 0 -115 q 243 -276 157 -260 l 249 -276 l 610 -278 l 611 110 q 476 -53 581 -40 l 278 -53 q 225 13 225 -37 l 225 821 q 278 886 225 872 l 446 886 l 446 885 q 519 864 488 881 q 611 719 596 822 m 268 957 q 154 821 154 932 l 154 13 q 268 -124 154 -99 l 539 -124 l 539 -206 l 256 -206 q 140 -147 192 -193 q 72 13 72 -85 l 72 821 q 140 981 72 918 q 256 1039 192 1026 l 260 1039 l 539 1039 l 539 957 l 268 957 z "},"D":{"ha":725,"x_min":0,"x_max":725,"o":"m 457 953 l 229 953 l 229 -125 l 457 -125 q 572 13 572 -100 l 572 817 q 457 953 572 928 m 500 13 q 447 -53 500 -39 l 301 -53 l 301 882 l 447 882 q 500 817 500 868 l 500 13 m 482 1111 l 0 1110 q 74 1036 68 1094 l 75 1036 l 75 -204 l 74 -204 q 64 -235 72 -221 q 0 -278 46 -267 l 482 -278 q 636 -200 568 -262 q 725 13 725 -117 l 725 817 q 635 1031 725 946 q 482 1111 567 1096 m 654 13 q 586 -147 654 -86 q 469 -207 535 -194 l 147 -207 l 147 1039 l 469 1035 q 586 976 535 1024 q 654 817 654 914 l 654 13 z "},"E":{"ha":649,"x_min":0,"x_max":649,"o":"m 0 -276 l 647 -278 l 649 19 q 590 -51 635 -40 l 297 -51 l 297 307 l 428 307 q 453 286 442 297 q 486 236 481 261 l 486 603 q 433 533 474 551 l 297 533 l 297 882 l 575 882 l 575 882 q 606 872 592 881 q 649 808 638 854 l 647 1111 l 0 1111 q 72 1050 63 1096 l 72 -215 q 53 -242 64 -231 q 0 -276 29 -269 m 144 1039 l 576 1039 l 576 954 l 226 954 l 226 461 l 414 461 l 414 379 l 226 379 l 226 -124 l 576 -124 l 576 -206 l 221 -206 l 221 -206 l 144 -206 l 144 1039 z "},"F":{"ha":654,"x_min":0,"x_max":654,"o":"m 651 1111 l 0 1111 q 74 1038 68 1094 l 75 1038 l 75 -204 l 74 -204 q 64 -235 72 -221 q 0 -278 46 -267 l 368 -278 q 301 -232 322 -267 l 301 307 l 433 307 q 458 286 447 296 q 492 235 486 260 l 492 603 q 439 532 481 551 l 301 532 l 301 882 l 581 882 l 581 882 q 611 872 597 881 q 654 808 643 854 l 651 1111 m 579 954 l 229 954 l 229 461 l 417 461 l 417 378 l 229 378 l 229 -207 l 147 -207 l 147 1039 l 579 1039 l 579 954 z "},"G":{"ha":724,"x_min":0,"x_max":724,"o":"m 724 538 l 317 539 l 318 238 q 392 311 333 306 l 392 313 l 426 313 l 426 -50 l 278 -50 q 226 15 226 -36 l 226 819 q 278 883 226 869 l 444 883 q 518 863 486 881 q 610 719 593 821 l 608 1111 l 243 1108 q 90 1031 158 1092 q 0 819 0 947 l 0 15 q 90 -196 0 -114 q 243 -274 158 -258 q 724 -278 243 -274 q 651 -217 661 -264 l 651 475 q 669 503 660 490 q 724 538 694 531 m 581 -204 l 256 -203 q 140 -144 192 -192 q 72 15 72 -82 l 72 819 q 140 978 72 917 q 256 1038 192 1025 l 260 1038 l 539 1038 l 539 956 l 268 956 q 154 819 154 931 l 154 15 q 268 -122 154 -97 l 499 -122 l 499 385 l 389 385 l 389 467 l 581 467 l 581 -204 z "},"H":{"ha":839,"x_min":0,"x_max":839,"o":"m 765 1038 q 774 1068 767 1054 q 839 1111 793 1100 l 464 1111 q 538 1038 532 1096 l 539 1038 l 539 314 l 300 314 l 300 1038 l 300 1038 q 310 1068 301 1054 q 374 1111 328 1100 l 0 1111 q 74 1040 67 1096 l 74 -207 q 64 -236 71 -224 q 0 -278 44 -268 l 374 -278 q 300 -204 306 -262 l 300 -204 l 300 88 l 539 88 l 539 -204 q 529 -233 536 -221 q 461 -278 510 -265 l 835 -278 q 764 -221 778 -264 l 764 1038 l 765 1038 m 693 -207 l 610 -207 l 610 160 l 228 160 l 228 -207 l 146 -207 l 146 1040 l 228 1040 l 228 242 l 610 242 l 610 1040 l 693 1040 l 693 -207 z "},"I":{"ha":374,"x_min":0,"x_max":374,"o":"m 374 1111 l 0 1111 q 74 1038 68 1096 l 75 1038 l 75 -204 l 74 -204 q 64 -235 72 -221 q 0 -278 46 -267 l 374 -278 q 301 -215 314 -264 l 301 1049 q 313 1074 304 1063 q 374 1111 333 1101 m 229 -204 l 147 -204 l 147 1040 l 229 1040 l 229 -204 z "},"J":{"ha":789,"x_min":0,"x_max":789,"o":"m 489 1038 l 489 1038 l 489 1038 l 490 1038 l 490 14 q 439 -51 490 -37 l 279 -51 q 226 14 226 -37 l 226 206 l 226 206 q 236 236 228 222 q 300 279 254 268 l 0 276 l 0 14 q 90 -199 0 -115 q 243 -276 158 -260 q 254 -278 243 -276 l 474 -276 q 626 -199 560 -260 q 717 14 717 -115 l 717 1050 q 736 1076 725 1065 q 789 1111 760 1104 l 415 1111 q 489 1038 483 1096 m 563 14 l 563 1025 l 644 1025 l 644 14 q 576 -146 644 -83 q 461 -206 525 -193 l 457 -206 l 257 -206 q 140 -146 192 -193 q 72 14 72 -83 l 72 206 l 154 206 l 154 14 q 268 -124 154 -99 l 449 -124 q 563 14 563 -99 z "},"K":{"ha":806,"x_min":0,"x_max":806,"o":"m 742 -219 q 425 433 594 83 l 726 1038 q 746 1067 735 1053 q 800 1111 771 1099 l 401 1111 q 478 1054 478 1094 q 474 1039 478 1046 l 300 689 l 300 1038 l 300 1038 q 310 1068 301 1054 q 374 1111 328 1100 l 0 1111 q 74 1038 68 1096 l 74 1038 l 74 -219 q 53 -244 64 -233 q 3 -278 28 -272 l 376 -278 q 303 -204 308 -262 l 300 172 l 482 -206 q 488 -225 488 -214 q 408 -278 488 -264 l 806 -278 q 779 -261 790 -271 q 742 -219 751 -242 m 561 -204 l 299 340 l 228 200 l 228 -204 l 146 -204 l 146 1040 l 228 1040 l 228 383 l 554 1036 l 646 1036 l 344 433 l 654 -204 l 561 -204 z "},"L":{"ha":653,"x_min":0,"x_max":653,"o":"m 0 -278 l 653 -276 l 651 24 q 578 -50 636 -46 l 578 -51 l 301 -51 l 301 1039 q 311 1065 303 1053 q 371 1111 328 1094 l 3 1111 q 76 1039 71 1096 l 74 -204 q 64 -235 72 -221 q 0 -278 46 -267 m 149 1040 l 231 1040 l 231 -122 l 581 -122 l 581 -204 l 149 -204 l 149 1040 z "},"M":{"ha":890,"x_min":0,"x_max":890,"o":"m 817 1038 q 826 1068 818 1054 q 890 1111 844 1100 l 508 1111 q 582 1038 590 1096 l 583 1038 l 443 508 l 303 1038 l 304 1038 q 378 1111 294 1093 l 0 1111 q 72 1049 64 1097 l 72 -218 q 53 -244 63 -233 q 0 -278 26 -272 l 889 -278 q 815 -204 821 -262 l 815 -204 l 815 1038 l 817 1038 m 351 -271 q 299 -204 299 -247 l 299 -204 l 299 176 l 400 -204 l 399 -204 q 401 -218 401 -211 q 351 -271 401 -251 m 589 -204 l 589 -204 q 536 -269 589 -247 q 485 -219 485 -250 q 488 -204 485 -212 l 488 -204 l 589 176 l 589 -204 m 743 -204 l 661 -204 l 661 726 q 483 58 624 583 l 443 -90 l 226 726 l 226 -204 l 144 -204 l 144 1040 l 228 1040 l 444 228 l 658 1040 l 743 1040 l 743 -204 z "},"N":{"ha":733,"x_min":0,"x_max":733,"o":"m 660 1036 q 669 1067 663 1053 q 733 1110 688 1099 l 361 1110 q 435 1042 425 1094 l 435 590 l 283 1111 l 0 1110 q 74 1036 68 1094 l 75 1036 l 75 -204 l 74 -204 q 64 -235 72 -221 q 0 -278 46 -267 l 371 -278 q 300 -221 313 -264 l 300 247 l 453 -276 l 732 -278 q 660 -214 672 -264 l 660 1036 l 660 1036 m 588 -204 l 507 -204 l 228 750 l 228 -204 l 146 -204 l 146 1039 l 229 1039 l 506 85 l 506 1039 l 588 1039 l 588 -204 z "},"O":{"ha":719,"x_min":0,"x_max":719,"o":"m 450 957 l 269 957 q 154 819 154 932 l 154 14 q 269 -124 154 -99 l 450 -124 q 564 14 564 -99 l 564 819 q 450 957 564 932 m 493 14 q 440 -51 493 -37 l 279 -51 q 226 14 226 -37 l 226 819 q 279 885 226 871 l 440 885 q 493 819 493 871 l 493 14 m 475 -276 q 629 -199 561 -260 q 719 14 719 -115 l 719 819 q 629 1032 719 949 q 475 1110 561 1093 l 465 1111 l 244 1110 q 90 1032 158 1093 q 0 819 0 949 l 0 14 q 90 -199 0 -115 q 244 -276 158 -260 q 254 -278 244 -276 l 475 -276 m 458 -206 l 257 -206 q 140 -146 192 -193 q 72 14 72 -83 l 72 819 q 140 979 72 917 q 257 1039 192 1026 l 261 1039 l 463 1039 q 578 979 526 1026 q 647 819 647 917 l 647 14 q 578 -146 647 -83 q 463 -206 526 -193 l 458 -206 z "},"P":{"ha":714,"x_min":0,"x_max":714,"o":"m 461 313 l 471 314 q 624 392 557 329 q 714 603 714 474 l 714 818 q 624 1029 714 947 q 471 1107 557 1092 l 465 1108 l 0 1111 q 74 1038 68 1096 l 75 1038 l 75 -204 l 74 -204 q 64 -235 72 -221 q 0 -278 46 -267 l 375 -278 q 301 -204 307 -262 l 301 -204 l 301 313 l 461 313 m 229 383 l 229 -204 l 147 -204 l 147 1040 l 458 1036 q 574 978 524 1025 q 643 818 643 915 l 643 603 q 574 443 643 506 q 458 385 522 396 l 454 383 l 229 383 m 560 603 l 560 818 q 446 956 560 931 l 229 956 l 229 467 l 446 467 q 560 603 560 490 m 489 603 q 436 538 489 551 l 301 538 l 301 883 l 436 883 q 489 818 489 869 l 489 603 z "},"Q":{"ha":786,"x_min":0,"x_max":924,"o":"m 449 958 l 268 958 q 154 821 154 933 l 154 15 q 268 -122 154 -97 l 449 -122 q 543 -58 513 -108 l 407 132 l 510 129 l 564 54 l 564 821 q 449 958 564 933 m 492 192 l 242 190 q 301 156 276 182 l 447 -47 q 439 -50 443 -49 l 279 -50 q 226 15 226 -36 l 226 821 q 279 886 226 872 l 439 886 q 492 821 492 872 l 492 192 m 515 -278 l 924 -278 q 858 -236 882 -268 l 857 -236 l 714 -32 q 718 15 718 -7 l 718 821 q 628 1032 718 950 q 474 1111 560 1094 q 471 1111 474 1111 l 243 1111 q 90 1033 158 1094 q 0 821 0 950 l 0 15 q 90 -196 0 -114 q 243 -275 157 -258 q 247 -275 243 -275 l 254 -276 l 474 -275 q 579 -232 528 -265 l 581 -235 q 565 -251 575 -244 q 515 -278 544 -271 m 461 -204 l 457 -204 l 257 -204 q 140 -144 192 -192 q 72 15 72 -82 l 72 821 q 140 981 72 918 q 257 1040 192 1028 l 260 1040 l 461 1040 q 578 981 526 1028 q 646 821 646 918 l 646 15 q 638 -49 646 -17 l 747 -210 l 651 -210 l 593 -128 q 461 -204 540 -189 z "},"R":{"ha":833,"x_min":0,"x_max":833,"o":"m 561 603 l 561 818 q 447 956 561 931 l 231 956 l 231 467 l 447 467 q 561 603 561 490 m 490 603 q 438 538 490 551 l 303 538 l 303 883 l 438 883 q 490 818 490 869 l 490 603 m 415 -278 l 833 -278 q 783 -261 806 -272 q 724 -194 733 -236 l 547 339 q 715 603 715 421 l 715 818 q 625 1029 715 947 q 472 1107 558 1092 l 467 1108 l 0 1111 q 74 1038 68 1096 l 76 1038 l 76 -204 l 76 -204 q 68 -235 75 -221 q 3 -278 49 -267 l 378 -278 q 304 -204 310 -262 l 303 -204 l 303 313 l 319 313 l 489 -204 l 489 -204 q 479 -235 486 -221 q 415 -278 461 -267 m 371 383 l 231 383 l 231 -204 l 149 -204 l 149 1040 l 460 1036 q 575 978 524 1025 q 643 818 643 915 l 643 603 q 575 443 643 506 q 460 385 524 396 l 457 385 l 651 -204 l 564 -204 l 371 383 z "},"S":{"ha":678,"x_min":0,"x_max":678,"o":"m 46 118 l 47 -276 l 433 -278 q 588 -200 519 -262 q 678 13 678 -117 l 678 231 q 588 443 678 360 q 433 521 519 504 l 431 521 l 425 522 q 283 535 304 538 q 228 601 228 547 l 228 818 q 281 883 228 869 l 507 883 l 507 882 q 581 861 549 879 q 674 717 658 819 l 675 1111 l 244 1110 q 90 1031 158 1093 q 0 818 0 949 l 0 601 q 90 389 0 472 q 244 311 158 326 l 247 310 l 253 310 q 394 297 374 294 q 451 231 451 283 l 451 13 q 399 -53 451 -39 l 206 -50 l 206 -49 q 133 -28 164 -44 q 46 118 57 14 m 408 -125 q 524 13 524 -100 l 524 231 q 471 339 524 300 q 407 368 442 361 q 260 382 404 368 l 258 382 q 140 440 193 394 q 72 601 72 504 l 72 818 q 140 979 72 917 q 258 1038 193 1026 l 261 1039 l 603 1039 l 603 956 l 269 956 q 156 818 156 931 l 156 601 q 207 492 156 532 q 271 464 236 471 q 418 450 274 464 l 421 450 q 538 390 486 438 q 606 231 606 328 l 606 13 q 538 -147 606 -85 q 421 -207 485 -196 l 417 -207 l 113 -207 l 113 -125 l 408 -125 z "},"T":{"ha":604,"x_min":0,"x_max":604,"o":"m 599 708 l 604 1111 l 3 1111 l 0 708 q 165 874 24 863 l 165 875 l 196 875 l 196 -225 q 125 -278 171 -249 l 496 -278 q 422 -204 428 -262 l 422 -204 l 422 875 l 433 875 l 433 874 q 506 853 475 871 q 599 708 582 813 m 350 957 l 350 -204 l 268 -204 l 268 957 l 75 957 l 75 1039 l 526 1039 l 526 957 l 350 957 z "},"U":{"ha":826,"x_min":0,"x_max":826,"o":"m 463 1111 q 536 1038 531 1096 l 536 14 q 483 -51 536 -37 l 353 -51 q 300 14 300 -37 l 300 1047 q 313 1074 304 1063 q 374 1111 332 1101 l 0 1111 q 74 1038 68 1096 l 75 1038 l 75 14 q 165 -199 75 -115 q 318 -276 232 -260 q 321 -276 318 -276 l 328 -278 l 508 -278 l 518 -276 q 672 -199 604 -260 q 761 14 761 -115 l 761 1038 l 763 1038 q 826 1108 763 1088 q 818 1111 824 1110 l 463 1111 m 690 14 q 622 -146 690 -83 q 506 -206 571 -193 l 501 -206 l 331 -206 q 215 -146 265 -193 q 146 14 146 -83 l 146 1038 l 229 1038 l 229 14 q 343 -124 229 -99 l 493 -124 q 608 14 608 -99 l 608 1038 l 690 1038 l 690 14 z "},"V":{"ha":932,"x_min":0,"x_max":932,"o":"m 625 1044 l 458 314 l 297 1038 q 307 1068 299 1054 q 371 1111 325 1100 l 8 1111 q 0 1108 6 1110 q 61 1057 49 1092 l 343 -204 l 343 -204 q 333 -235 342 -221 q 269 -278 315 -267 l 644 -278 q 571 -206 576 -262 l 856 1038 l 858 1038 q 868 1068 860 1054 q 932 1111 886 1100 l 553 1111 q 625 1044 615 1097 m 782 1039 l 497 -206 l 417 -206 l 139 1039 l 221 1040 l 457 -11 l 699 1040 l 782 1039 z "},"W":{"ha":1279,"x_min":0,"x_max":1279,"o":"m 974 1038 l 978 1038 l 878 297 l 649 983 l 408 283 l 303 1038 l 306 1038 q 315 1068 308 1054 q 379 1111 333 1100 l 0 1111 q 74 1038 68 1096 l 75 1038 l 249 -204 l 246 -204 q 236 -235 244 -221 q 172 -278 218 -267 l 547 -278 q 475 -218 486 -264 l 646 279 l 810 -210 q 799 -237 807 -225 q 736 -278 779 -268 l 1111 -278 q 1039 -207 1046 -262 l 1206 1038 l 1206 1038 q 1215 1068 1207 1054 q 1279 1111 1233 1100 l 900 1111 q 974 1038 968 1096 m 1133 1040 l 967 -204 l 883 -204 l 647 503 l 404 -204 l 321 -204 l 147 1039 l 229 1040 l 379 -25 l 647 760 l 908 -19 l 1050 1040 l 1133 1040 z "},"X":{"ha":882,"x_min":0,"x_max":882,"o":"m 817 -236 l 561 419 l 808 1056 l 811 1057 q 882 1111 835 1082 l 485 1111 q 558 1038 553 1096 l 560 1038 l 440 729 l 321 1038 l 324 1038 q 332 1068 325 1054 q 396 1111 350 1100 l 0 1111 q 64 1071 40 1101 l 65 1069 l 319 415 l 74 -224 l 74 -224 q 3 -278 51 -249 l 393 -278 q 319 -204 325 -262 l 440 107 l 563 -206 q 553 -236 560 -222 q 489 -278 533 -268 l 882 -278 q 817 -236 839 -268 m 638 -203 l 440 306 l 243 -203 l 158 -203 l 397 415 l 153 1040 l 243 1040 l 442 531 l 638 1040 l 725 1040 l 485 419 l 725 -203 l 638 -203 z "},"Y":{"ha":956,"x_min":0,"x_max":956,"o":"m 563 1111 q 636 1038 631 1096 l 638 1038 l 476 636 l 319 1039 q 329 1069 321 1056 q 393 1111 347 1101 l 0 1111 q 65 1067 43 1101 l 363 306 l 363 -204 l 363 -204 q 353 -235 361 -221 q 289 -278 335 -267 l 661 -278 q 589 -217 599 -264 l 589 307 l 894 1075 q 956 1111 906 1089 l 563 1111 m 517 319 l 517 -204 l 435 -204 l 435 319 l 153 1040 l 242 1040 l 476 439 q 715 1040 532 579 l 804 1040 l 517 319 z "},"Z":{"ha":781,"x_min":0,"x_max":781,"o":"m 69 1111 l 68 719 q 229 883 92 869 l 447 883 l 0 -278 l 697 -278 l 699 110 q 563 -53 668 -40 l 331 -53 l 781 1110 l 69 1111 m 622 -125 l 622 -207 l 104 -206 l 551 956 l 143 956 l 143 1038 l 676 1038 l 225 -125 l 622 -125 z "},"a":{"ha":967,"x_min":0,"x_max":967,"o":"m 883 -231 l 601 1038 l 601 1038 q 675 1111 599 1082 l 300 1111 q 374 1039 376 1092 l 85 -226 q 63 -246 75 -236 q 0 -278 35 -268 l 394 -278 q 321 -204 317 -246 l 321 -204 l 381 57 l 589 57 l 647 -204 l 646 -204 q 572 -278 650 -246 l 967 -278 q 883 -231 897 -258 m 721 -204 l 646 129 l 324 129 l 247 -204 l 163 -204 l 447 1040 l 528 1040 l 804 -204 l 721 -204 m 342 211 l 628 211 l 486 842 l 342 211 m 432 283 l 486 517 l 538 283 l 432 283 z "},"b":{"ha":711,"x_min":0,"x_max":711,"o":"m 443 382 l 228 382 l 228 -122 l 443 -122 q 557 14 557 -97 l 557 246 q 443 382 557 357 m 486 14 q 433 -50 486 -36 l 299 -50 l 299 311 l 433 311 q 486 246 486 296 l 486 14 m 443 957 l 228 957 l 228 464 l 443 464 q 557 601 557 489 l 557 819 q 443 957 557 932 m 486 601 q 433 536 486 550 l 299 536 l 299 885 l 433 885 q 486 819 486 871 l 486 601 m 468 1110 q 458 1111 468 1110 l 451 1111 l 74 1110 l 74 1110 l 0 1110 q 74 1038 68 1079 l 74 -203 q 64 -228 72 -215 q 0 -276 46 -256 l 74 -276 l 74 -278 l 468 -274 q 621 -197 554 -258 q 711 14 711 -114 l 711 246 q 650 424 711 346 q 711 601 711 501 l 711 819 q 621 1032 711 949 q 468 1110 554 1094 m 639 601 q 549 424 639 488 q 639 246 639 358 l 639 14 q 571 -144 639 -83 q 456 -204 521 -192 l 451 -204 l 144 -206 l 144 1039 l 456 1039 q 571 981 519 1028 q 639 819 639 917 l 639 601 z "},"c":{"ha":611,"x_min":0,"x_max":611,"o":"m 611 719 l 610 1111 l 243 1110 q 90 1032 157 1093 q 0 821 0 949 l 0 13 q 90 -199 0 -115 q 243 -276 157 -260 l 249 -276 l 610 -278 l 611 110 q 476 -53 581 -40 l 278 -53 q 225 13 225 -37 l 225 821 q 278 886 225 872 l 446 886 l 446 885 q 519 864 488 881 q 611 719 596 822 m 268 957 q 154 821 154 932 l 154 13 q 268 -124 154 -99 l 539 -124 l 539 -206 l 256 -206 q 140 -147 192 -193 q 72 13 72 -85 l 72 821 q 140 981 72 918 q 256 1039 192 1026 l 260 1039 l 539 1039 l 539 957 l 268 957 z "},"d":{"ha":725,"x_min":0,"x_max":725,"o":"m 457 953 l 229 953 l 229 -125 l 457 -125 q 572 13 572 -100 l 572 817 q 457 953 572 928 m 500 13 q 447 -53 500 -39 l 301 -53 l 301 882 l 447 882 q 500 817 500 868 l 500 13 m 482 1111 l 0 1110 q 74 1036 68 1094 l 75 1036 l 75 -204 l 74 -204 q 64 -235 72 -221 q 0 -278 46 -267 l 482 -278 q 636 -200 568 -262 q 725 13 725 -117 l 725 817 q 635 1031 725 946 q 482 1111 567 1096 m 654 13 q 586 -147 654 -86 q 469 -207 535 -194 l 147 -207 l 147 1039 l 469 1035 q 586 976 535 1024 q 654 817 654 914 l 654 13 z "},"e":{"ha":649,"x_min":0,"x_max":649,"o":"m 0 -276 l 647 -278 l 649 19 q 590 -51 635 -40 l 297 -51 l 297 307 l 428 307 q 453 286 442 297 q 486 236 481 261 l 486 603 q 433 533 474 551 l 297 533 l 297 882 l 575 882 l 575 882 q 606 872 592 881 q 649 808 638 854 l 647 1111 l 0 1111 q 72 1050 63 1096 l 72 -215 q 53 -242 64 -231 q 0 -276 29 -269 m 144 1039 l 576 1039 l 576 954 l 226 954 l 226 461 l 414 461 l 414 379 l 226 379 l 226 -124 l 576 -124 l 576 -206 l 221 -206 l 221 -206 l 144 -206 l 144 1039 z "},"f":{"ha":654,"x_min":0,"x_max":654,"o":"m 651 1111 l 0 1111 q 74 1038 68 1094 l 75 1038 l 75 -204 l 74 -204 q 64 -235 72 -221 q 0 -278 46 -267 l 368 -278 q 301 -232 322 -267 l 301 307 l 433 307 q 458 286 447 296 q 492 235 486 260 l 492 603 q 439 532 481 551 l 301 532 l 301 882 l 581 882 l 581 882 q 611 872 597 881 q 654 808 643 854 l 651 1111 m 579 954 l 229 954 l 229 461 l 417 461 l 417 378 l 229 378 l 229 -207 l 147 -207 l 147 1039 l 579 1039 l 579 954 z "},"g":{"ha":724,"x_min":0,"x_max":724,"o":"m 724 538 l 317 539 l 318 238 q 392 311 333 306 l 392 313 l 426 313 l 426 -50 l 278 -50 q 226 15 226 -36 l 226 819 q 278 883 226 869 l 444 883 q 518 863 486 881 q 610 719 593 821 l 608 1111 l 243 1108 q 90 1031 158 1092 q 0 819 0 947 l 0 15 q 90 -196 0 -114 q 243 -274 158 -258 q 724 -278 243 -274 q 651 -217 661 -264 l 651 475 q 669 503 660 490 q 724 538 694 531 m 581 -204 l 256 -203 q 140 -144 192 -192 q 72 15 72 -82 l 72 819 q 140 978 72 917 q 256 1038 192 1025 l 260 1038 l 539 1038 l 539 956 l 268 956 q 154 819 154 931 l 154 15 q 268 -122 154 -97 l 499 -122 l 499 385 l 389 385 l 389 467 l 581 467 l 581 -204 z "},"h":{"ha":838,"x_min":0,"x_max":838,"o":"m 538 -204 q 529 -235 536 -221 q 464 -278 510 -267 l 838 -278 q 764 -204 769 -262 l 764 -204 l 764 1038 l 764 1038 q 774 1068 765 1054 q 838 1111 792 1100 l 464 1111 q 538 1038 532 1096 l 539 1038 l 539 535 l 300 535 l 300 1038 l 300 1038 q 310 1068 301 1054 q 374 1111 328 1100 l 0 1111 q 74 1038 68 1096 l 74 1038 l 74 -204 l 74 -204 q 64 -235 72 -221 q 0 -278 46 -267 l 374 -278 q 300 -204 306 -262 l 300 -204 l 300 308 l 539 308 l 539 -204 l 538 -204 m 228 381 l 228 -204 l 146 -204 l 146 1040 l 228 1040 l 228 463 l 610 463 l 610 1040 l 692 1040 l 692 -204 l 610 -204 l 610 381 l 228 381 z "},"i":{"ha":374,"x_min":0,"x_max":374,"o":"m 374 1111 l 0 1111 q 74 1038 68 1096 l 75 1038 l 75 -204 l 74 -204 q 64 -235 72 -221 q 0 -278 46 -267 l 374 -278 q 301 -215 314 -264 l 301 1049 q 313 1074 304 1063 q 374 1111 333 1101 m 229 -204 l 147 -204 l 147 1040 l 229 1040 l 229 -204 z "},"j":{"ha":789,"x_min":0,"x_max":789,"o":"m 489 1038 l 489 1038 l 489 1038 l 490 1038 l 490 14 q 439 -51 490 -37 l 279 -51 q 226 14 226 -37 l 226 206 l 226 206 q 236 236 228 222 q 300 279 254 268 l 0 276 l 0 14 q 90 -199 0 -115 q 243 -276 158 -260 q 254 -278 243 -276 l 474 -276 q 626 -199 560 -260 q 717 14 717 -115 l 717 1050 q 736 1076 725 1065 q 789 1111 760 1104 l 415 1111 q 489 1038 483 1096 m 563 14 l 563 1025 l 644 1025 l 644 14 q 576 -146 644 -83 q 461 -206 525 -193 l 457 -206 l 257 -206 q 140 -146 192 -193 q 72 14 72 -83 l 72 206 l 154 206 l 154 14 q 268 -124 154 -99 l 449 -124 q 563 14 563 -99 z "},"k":{"ha":806,"x_min":0,"x_max":806,"o":"m 742 -219 q 425 433 594 83 l 726 1038 q 746 1067 735 1053 q 800 1111 771 1099 l 401 1111 q 478 1054 478 1094 q 474 1039 478 1046 l 300 689 l 300 1038 l 300 1038 q 310 1068 301 1054 q 374 1111 328 1100 l 0 1111 q 74 1038 68 1096 l 74 1038 l 74 -219 q 53 -244 64 -233 q 3 -278 28 -272 l 376 -278 q 303 -204 308 -262 l 300 172 l 482 -206 q 488 -225 488 -214 q 408 -278 488 -264 l 806 -278 q 779 -261 790 -271 q 742 -219 751 -242 m 561 -204 l 299 340 l 228 200 l 228 -204 l 146 -204 l 146 1040 l 228 1040 l 228 383 l 554 1036 l 646 1036 l 344 433 l 654 -204 l 561 -204 z "},"l":{"ha":653,"x_min":0,"x_max":653,"o":"m 0 -278 l 653 -276 l 651 24 q 578 -50 636 -46 l 578 -51 l 301 -51 l 301 1039 q 311 1065 303 1053 q 371 1111 328 1094 l 3 1111 q 76 1039 71 1096 l 74 -204 q 64 -235 72 -221 q 0 -278 46 -267 m 149 1040 l 231 1040 l 231 -122 l 581 -122 l 581 -204 l 149 -204 l 149 1040 z "},"m":{"ha":890,"x_min":0,"x_max":890,"o":"m 817 1038 q 826 1068 818 1054 q 890 1111 844 1100 l 508 1111 q 582 1038 590 1096 l 583 1038 l 443 508 l 303 1038 l 304 1038 q 378 1111 294 1093 l 0 1111 q 72 1049 64 1097 l 72 -218 q 53 -244 63 -233 q 0 -278 26 -272 l 889 -278 q 815 -204 821 -262 l 815 -204 l 815 1038 l 817 1038 m 351 -271 q 299 -204 299 -247 l 299 -204 l 299 176 l 400 -204 l 399 -204 q 401 -218 401 -211 q 351 -271 401 -251 m 589 -204 l 589 -204 q 536 -269 589 -247 q 485 -219 485 -250 q 488 -204 485 -212 l 488 -204 l 589 176 l 589 -204 m 743 -204 l 661 -204 l 661 726 q 483 58 624 583 l 443 -90 l 226 726 l 226 -204 l 144 -204 l 144 1040 l 228 1040 l 444 228 l 658 1040 l 743 1040 l 743 -204 z "},"n":{"ha":733,"x_min":0,"x_max":733,"o":"m 660 1036 q 669 1067 663 1053 q 733 1110 688 1099 l 361 1110 q 435 1042 425 1094 l 435 590 l 283 1111 l 0 1110 q 74 1036 68 1094 l 75 1036 l 75 -204 l 74 -204 q 64 -235 72 -221 q 0 -278 46 -267 l 371 -278 q 300 -221 313 -264 l 300 247 l 453 -276 l 732 -278 q 660 -214 672 -264 l 660 1036 l 660 1036 m 588 -204 l 507 -204 l 228 750 l 228 -204 l 146 -204 l 146 1039 l 229 1039 l 506 85 l 506 1039 l 588 1039 l 588 -204 z "},"o":{"ha":719,"x_min":0,"x_max":719,"o":"m 450 957 l 269 957 q 154 819 154 932 l 154 14 q 269 -124 154 -99 l 450 -124 q 564 14 564 -99 l 564 819 q 450 957 564 932 m 493 14 q 440 -51 493 -37 l 279 -51 q 226 14 226 -37 l 226 819 q 279 885 226 871 l 440 885 q 493 819 493 871 l 493 14 m 475 -276 q 629 -199 561 -260 q 719 14 719 -115 l 719 819 q 629 1032 719 949 q 475 1110 561 1093 l 465 1111 l 244 1110 q 90 1032 158 1093 q 0 819 0 949 l 0 14 q 90 -199 0 -115 q 244 -276 158 -260 q 254 -278 244 -276 l 475 -276 m 458 -206 l 257 -206 q 140 -146 192 -193 q 72 14 72 -83 l 72 819 q 140 979 72 917 q 257 1039 192 1026 l 261 1039 l 463 1039 q 578 979 526 1026 q 647 819 647 917 l 647 14 q 578 -146 647 -83 q 463 -206 526 -193 l 458 -206 z "},"p":{"ha":714,"x_min":0,"x_max":714,"o":"m 461 313 l 471 314 q 624 392 557 329 q 714 603 714 474 l 714 818 q 624 1029 714 947 q 471 1107 557 1092 l 465 1108 l 0 1111 q 74 1038 68 1096 l 75 1038 l 75 -204 l 74 -204 q 64 -235 72 -221 q 0 -278 46 -267 l 375 -278 q 301 -204 307 -262 l 301 -204 l 301 313 l 461 313 m 229 383 l 229 -204 l 147 -204 l 147 1040 l 458 1036 q 574 978 524 1025 q 643 818 643 915 l 643 603 q 574 443 643 506 q 458 385 522 396 l 454 383 l 229 383 m 560 603 l 560 818 q 446 956 560 931 l 229 956 l 229 467 l 446 467 q 560 603 560 490 m 489 603 q 436 538 489 551 l 301 538 l 301 883 l 436 883 q 489 818 489 869 l 489 603 z "},"q":{"ha":786,"x_min":0,"x_max":924,"o":"m 449 958 l 268 958 q 154 821 154 933 l 154 15 q 268 -122 154 -97 l 449 -122 q 543 -58 513 -108 l 407 132 l 510 129 l 564 54 l 564 821 q 449 958 564 933 m 492 192 l 242 190 q 301 156 276 182 l 447 -47 q 439 -50 443 -49 l 279 -50 q 226 15 226 -36 l 226 821 q 279 886 226 872 l 439 886 q 492 821 492 872 l 492 192 m 515 -278 l 924 -278 q 858 -236 882 -268 l 857 -236 l 714 -32 q 718 15 718 -7 l 718 821 q 628 1032 718 950 q 474 1111 560 1094 q 471 1111 474 1111 l 243 1111 q 90 1033 158 1094 q 0 821 0 950 l 0 15 q 90 -196 0 -114 q 243 -275 157 -258 q 247 -275 243 -275 l 254 -276 l 474 -275 q 579 -232 528 -265 l 581 -235 q 565 -251 575 -244 q 515 -278 544 -271 m 461 -204 l 457 -204 l 257 -204 q 140 -144 192 -192 q 72 15 72 -82 l 72 821 q 140 981 72 918 q 257 1040 192 1028 l 260 1040 l 461 1040 q 578 981 526 1028 q 646 821 646 918 l 646 15 q 638 -49 646 -17 l 747 -210 l 651 -210 l 593 -128 q 461 -204 540 -189 z "},"r":{"ha":790,"x_min":0,"x_max":790,"o":"m 489 -204 q 479 -235 486 -221 q 415 -278 461 -267 l 790 -278 q 717 -204 722 -262 l 714 -204 l 714 247 q 653 425 714 347 q 714 603 714 503 l 714 818 q 624 1029 714 947 q 471 1107 557 1092 l 465 1108 l 0 1111 q 74 1038 68 1096 l 75 1038 l 75 -215 q 64 -240 72 -229 q 3 -278 43 -268 l 378 -278 q 304 -204 310 -262 l 301 -204 l 301 313 l 436 313 q 489 247 489 299 l 489 -204 l 489 -204 m 446 383 l 229 383 l 229 -204 l 147 -204 l 147 1040 l 458 1036 q 574 978 522 1025 q 642 818 642 915 l 642 603 q 551 425 642 489 q 642 247 642 361 l 642 -204 l 560 -204 l 560 247 q 446 383 560 360 m 560 603 l 560 818 q 446 956 560 931 l 229 956 l 229 467 l 446 467 q 560 603 560 490 m 489 603 q 436 538 489 551 l 301 538 l 301 883 l 436 883 q 489 818 489 869 l 489 603 z "},"s":{"ha":678,"x_min":0,"x_max":678,"o":"m 46 118 l 47 -276 l 433 -278 q 588 -200 519 -262 q 678 13 678 -117 l 678 231 q 588 443 678 360 q 433 521 519 504 l 431 521 l 425 522 q 283 535 304 538 q 228 601 228 547 l 228 818 q 281 883 228 869 l 507 883 l 507 882 q 581 861 549 879 q 674 717 658 819 l 675 1111 l 244 1110 q 90 1031 158 1093 q 0 818 0 949 l 0 601 q 90 389 0 472 q 244 311 158 326 l 247 310 l 253 310 q 394 297 374 294 q 451 231 451 283 l 451 13 q 399 -53 451 -39 l 206 -50 l 206 -49 q 133 -28 164 -44 q 46 118 57 14 m 408 -125 q 524 13 524 -100 l 524 231 q 471 339 524 300 q 407 368 442 361 q 260 382 404 368 l 258 382 q 140 440 193 394 q 72 601 72 504 l 72 818 q 140 979 72 917 q 258 1038 193 1026 l 261 1039 l 603 1039 l 603 956 l 269 956 q 156 818 156 931 l 156 601 q 207 492 156 532 q 271 464 236 471 q 418 450 274 464 l 421 450 q 538 390 486 438 q 606 231 606 328 l 606 13 q 538 -147 606 -85 q 421 -207 485 -196 l 417 -207 l 113 -207 l 113 -125 l 408 -125 z "},"t":{"ha":594,"x_min":0,"x_max":594,"o":"m 521 882 q 551 874 538 881 q 594 808 583 854 l 594 1111 l 0 1111 l 1 808 q 75 882 17 876 l 193 882 l 193 -225 q 124 -278 168 -249 l 493 -278 q 419 -204 425 -262 l 419 -204 l 419 882 l 521 882 m 347 957 l 347 -204 l 265 -204 l 265 957 l 72 957 l 72 1039 l 524 1039 l 524 957 l 347 957 z "},"u":{"ha":826,"x_min":0,"x_max":826,"o":"m 463 1111 q 536 1038 531 1096 l 536 14 q 483 -51 536 -37 l 353 -51 q 300 14 300 -37 l 300 1047 q 313 1074 304 1063 q 374 1111 332 1101 l 0 1111 q 74 1038 68 1096 l 75 1038 l 75 14 q 165 -199 75 -115 q 318 -276 232 -260 q 321 -276 318 -276 l 328 -278 l 508 -278 l 518 -276 q 672 -199 604 -260 q 761 14 761 -115 l 761 1038 l 763 1038 q 826 1108 763 1088 q 818 1111 824 1110 l 463 1111 m 690 14 q 622 -146 690 -83 q 506 -206 571 -193 l 501 -206 l 331 -206 q 215 -146 265 -193 q 146 14 146 -83 l 146 1038 l 229 1038 l 229 14 q 343 -124 229 -99 l 493 -124 q 608 14 608 -99 l 608 1038 l 690 1038 l 690 14 z "},"v":{"ha":932,"x_min":0,"x_max":932,"o":"m 625 1044 l 458 314 l 297 1038 q 307 1068 299 1054 q 371 1111 325 1100 l 8 1111 q 0 1108 6 1110 q 61 1057 49 1092 l 343 -204 l 343 -204 q 333 -235 342 -221 q 269 -278 315 -267 l 644 -278 q 571 -206 576 -262 l 856 1038 l 858 1038 q 868 1068 860 1054 q 932 1111 886 1100 l 553 1111 q 625 1044 615 1097 m 782 1039 l 497 -206 l 417 -206 l 139 1039 l 221 1040 l 457 -11 l 699 1040 l 782 1039 z "},"w":{"ha":1279,"x_min":0,"x_max":1279,"o":"m 974 1038 l 978 1038 l 878 297 l 649 983 l 408 283 l 303 1038 l 306 1038 q 315 1068 308 1054 q 379 1111 333 1100 l 0 1111 q 74 1038 68 1096 l 75 1038 l 249 -204 l 246 -204 q 236 -235 244 -221 q 172 -278 218 -267 l 547 -278 q 475 -218 486 -264 l 646 279 l 810 -210 q 799 -237 807 -225 q 736 -278 779 -268 l 1111 -278 q 1039 -207 1046 -262 l 1206 1038 l 1206 1038 q 1215 1068 1207 1054 q 1279 1111 1233 1100 l 900 1111 q 974 1038 968 1096 m 1133 1040 l 967 -204 l 883 -204 l 647 503 l 404 -204 l 321 -204 l 147 1039 l 229 1040 l 379 -25 l 647 760 l 908 -19 l 1050 1040 l 1133 1040 z "},"x":{"ha":882,"x_min":0,"x_max":882,"o":"m 817 -236 l 561 419 l 808 1056 l 811 1057 q 882 1111 835 1082 l 485 1111 q 558 1038 553 1096 l 560 1038 l 440 729 l 321 1038 l 324 1038 q 332 1068 325 1054 q 396 1111 350 1100 l 0 1111 q 64 1071 40 1101 l 65 1069 l 319 415 l 74 -224 l 74 -224 q 3 -278 51 -249 l 393 -278 q 319 -204 325 -262 l 440 107 l 563 -206 q 553 -236 560 -222 q 489 -278 533 -268 l 882 -278 q 817 -236 839 -268 m 638 -203 l 440 306 l 243 -203 l 158 -203 l 397 415 l 153 1040 l 243 1040 l 442 531 l 638 1040 l 725 1040 l 485 419 l 725 -203 l 638 -203 z "},"y":{"ha":956,"x_min":0,"x_max":956,"o":"m 563 1111 q 636 1038 631 1096 l 638 1038 l 476 636 l 319 1039 q 329 1069 321 1056 q 393 1111 347 1101 l 0 1111 q 65 1067 43 1101 l 363 306 l 363 -204 l 363 -204 q 353 -235 361 -221 q 289 -278 335 -267 l 661 -278 q 589 -217 599 -264 l 589 307 l 894 1075 q 956 1111 906 1089 l 563 1111 m 517 319 l 517 -204 l 435 -204 l 435 319 l 153 1040 l 242 1040 l 476 439 q 715 1040 532 579 l 804 1040 l 517 319 z "},"z":{"ha":781,"x_min":0,"x_max":781,"o":"m 619 -51 l 619 -51 l 331 -51 l 781 1111 l 71 1111 l 71 811 q 143 885 86 879 l 143 886 l 447 886 l 0 -276 l 694 -278 l 693 22 q 619 -51 678 -46 m 622 -206 l 104 -204 l 553 957 l 143 957 l 143 1039 l 676 1039 l 225 -124 l 622 -124 l 622 -206 z "},"~":{"ha":4938,"x_min":0,"x_max":4896,"o":"m 4896 799 l 4896 1097 l 4256 1097 q 4326 1038 4317 1083 l 4326 -215 q 4308 -240 4318 -229 q 4256 -275 4283 -268 l 4896 -276 l 4896 17 q 4839 -53 4883 -42 l 4550 -53 l 4550 303 l 4678 303 q 4703 282 4692 293 q 4736 232 4731 257 l 4736 594 q 4683 526 4724 540 l 4550 526 l 4550 871 l 4824 871 l 4824 871 q 4854 861 4840 869 q 4896 799 4886 843 m 4479 942 l 4479 454 l 4664 454 l 4664 374 l 4479 374 l 4479 -125 l 4825 -125 l 4825 -206 l 4474 -206 l 4474 -206 l 4397 -206 l 4397 1026 l 4825 1026 l 4825 942 l 4479 942 m 1189 1096 l 821 1096 q 893 1024 888 1081 l 894 1024 l 894 -206 l 893 -206 q 883 -235 892 -222 q 821 -278 865 -268 l 1189 -278 q 1118 -215 1131 -264 l 1118 1033 q 1129 1060 1121 1047 q 1189 1096 1150 1088 m 1047 -206 l 965 -206 l 965 1026 l 1047 1026 l 1047 -206 m 3442 711 l 3442 1099 l 3078 1097 q 2926 1021 2993 1082 q 2836 811 2836 939 l 2836 11 q 2926 -197 2836 -117 q 3078 -275 2993 -260 l 3083 -275 l 3442 -276 l 3442 107 q 3308 -53 3413 -42 l 3113 -53 q 3060 11 3060 -39 l 3060 811 q 3113 876 3060 863 l 3279 876 l 3279 875 q 3351 854 3319 871 q 3442 711 3426 813 m 3101 947 q 2989 811 2989 922 l 2989 11 q 3101 -124 2989 -100 l 3371 -124 l 3371 -206 l 3090 -204 q 2975 -147 3026 -193 q 2908 11 2908 -85 l 2908 811 q 2975 969 2908 907 q 3090 1028 3026 1015 l 3093 1028 l 3371 1028 l 3371 947 l 3101 947 m 464 1096 q 454 1099 464 1096 l 447 1099 l 72 1097 l 72 1097 l 0 1097 q 72 1025 67 1067 l 72 -203 q 64 -226 71 -215 q 0 -275 46 -254 l 72 -275 l 72 -276 l 464 -274 q 615 -196 549 -257 q 704 13 704 -115 l 704 242 q 643 417 704 340 q 704 593 704 494 l 704 810 q 615 1019 704 938 q 464 1096 549 1081 m 633 593 q 543 417 633 481 q 633 242 633 354 l 633 13 q 565 -144 633 -83 q 451 -203 515 -192 l 447 -204 l 143 -206 l 143 1026 l 451 1026 q 565 968 515 1015 q 633 810 633 906 l 633 593 m 439 946 l 225 946 l 225 458 l 439 458 q 551 593 551 482 l 551 810 q 439 946 551 921 m 481 593 q 429 529 481 543 l 296 529 l 296 874 l 429 874 q 481 810 481 861 l 481 593 m 439 376 l 225 376 l 225 -122 l 439 -122 q 551 13 551 -99 l 551 242 q 439 376 551 353 m 481 13 q 429 -51 481 -37 l 296 -51 l 296 306 l 429 306 q 481 242 481 292 l 481 13 m 4122 -53 l 4122 -53 l 3849 -53 l 3849 1025 q 3858 1051 3850 1039 q 3917 1096 3875 1079 l 3553 1096 q 3626 1024 3621 1081 l 3624 -206 q 3614 -235 3622 -222 q 3550 -278 3596 -268 l 4196 -276 l 4194 19 q 4122 -53 4179 -47 m 4125 -206 l 3697 -206 l 3697 1026 l 3778 1026 l 3778 -125 l 4125 -125 l 4125 -206 m 2461 1096 q 2533 1024 2529 1081 l 2535 1024 l 2376 625 l 2221 1025 q 2231 1054 2222 1042 q 2293 1096 2249 1086 l 1907 1096 l 1907 1099 l 1543 1097 q 1390 1021 1458 1082 q 1301 811 1301 939 l 1301 11 q 1390 -197 1301 -117 q 1543 -275 1458 -260 l 1549 -275 l 1907 -276 l 1907 107 q 1774 -53 1878 -42 l 1576 -53 q 1525 11 1525 -39 l 1525 811 q 1576 876 1525 863 l 1744 876 l 1744 875 q 1817 854 1785 871 q 1907 711 1892 813 l 1907 1096 q 1969 1053 1953 1083 l 2264 300 l 2264 -206 l 2264 -206 q 2254 -235 2261 -222 q 2190 -278 2236 -268 l 2558 -278 q 2488 -218 2497 -264 l 2488 300 l 2790 1061 q 2850 1096 2801 1074 l 2461 1096 m 1835 947 l 1567 947 q 1454 811 1454 922 l 1454 11 q 1567 -124 1454 -100 l 1835 -124 l 1835 -206 l 1556 -204 q 1440 -147 1492 -193 q 1372 11 1372 -85 l 1372 811 q 1440 969 1372 907 q 1556 1028 1490 1015 l 1558 1028 l 1835 1028 l 1835 947 m 2417 314 l 2417 -206 l 2335 -206 l 2335 314 l 2057 1026 l 2144 1026 l 2376 432 q 2613 1026 2435 579 l 2700 1026 l 2417 314 z "}," ":{"ha":243,"x_min":0,"x_max":0,"o":""},"˝":{"ha":1039,"x_min":0,"x_max":990,"o":"m 856 574 q 854 578 854 576 q 850 607 844 589 q 863 613 853 614 q 874 586 874 606 q 878 561 874 567 q 894 572 888 560 q 889 615 901 588 q 846 635 869 640 q 828 605 829 621 q 821 583 826 589 l 821 583 q 817 580 819 581 q 811 579 814 579 q 800 563 801 569 q 821 539 803 542 q 838 540 835 539 q 851 549 847 542 q 856 568 856 557 q 856 574 856 571 m 679 685 q 674 682 674 683 q 689 661 678 668 q 696 665 693 660 q 679 685 696 676 m 628 678 q 624 676 626 678 q 636 654 628 668 q 647 647 639 653 q 663 642 656 640 q 660 653 663 640 q 628 678 650 661 m 776 642 q 768 638 771 642 q 792 610 768 624 q 799 617 799 610 q 776 642 800 622 m 661 531 q 643 526 644 540 q 644 475 653 492 q 642 442 651 457 q 644 432 643 432 q 668 476 661 443 q 674 506 671 492 q 661 531 675 524 m 229 365 l 231 364 l 232 363 l 229 365 m 108 303 q 108 303 108 303 q 108 304 108 304 l 107 304 q 108 303 107 304 m 240 350 l 240 350 l 242 349 q 242 349 242 349 q 240 350 242 350 m 167 219 q 172 218 169 219 l 172 218 l 167 219 m 153 238 l 153 238 q 153 240 153 239 q 153 238 153 236 m 282 260 l 283 258 l 283 258 q 283 258 283 258 q 282 260 283 258 m 315 119 l 315 119 q 315 119 315 119 m 567 104 q 567 107 568 108 q 567 106 567 106 q 567 104 567 106 m 501 81 l 497 81 l 496 81 q 501 81 497 81 m 568 111 q 569 121 568 113 l 568 131 q 567 133 567 131 l 564 140 l 563 143 q 565 154 565 149 q 546 183 565 174 q 543 183 546 183 l 536 185 l 529 188 q 521 186 528 188 q 518 186 521 186 q 499 196 511 196 q 490 194 494 196 l 488 193 q 482 192 486 193 l 478 186 q 471 186 474 186 q 461 189 467 189 l 451 188 l 449 188 l 449 188 q 431 192 440 192 q 433 192 432 192 l 432 192 q 424 192 428 192 l 424 192 q 421 192 422 192 l 414 196 q 411 197 413 196 l 408 199 q 406 200 408 199 q 410 211 410 204 q 378 246 408 239 q 378 246 378 246 l 374 247 q 357 250 374 247 l 357 250 q 356 251 357 250 l 353 251 q 347 256 353 251 q 321 256 332 261 q 315 250 319 256 l 314 251 q 307 254 311 253 l 303 254 q 297 254 299 256 l 290 253 q 289 254 290 253 l 283 258 q 272 263 276 261 q 254 279 267 274 l 253 281 l 251 283 l 250 285 l 250 286 l 250 286 q 249 288 250 286 l 244 292 l 246 293 q 254 314 254 304 q 254 315 254 315 q 251 326 254 315 q 251 329 251 326 l 250 332 l 249 335 q 249 336 249 335 l 249 336 q 249 338 249 336 l 242 349 l 236 354 l 236 356 q 221 369 231 367 q 211 376 217 371 q 204 378 208 378 l 200 379 q 203 379 200 379 q 185 383 192 383 q 181 382 182 382 q 135 368 157 386 l 131 365 q 147 369 138 368 l 129 365 q 124 361 128 365 l 119 354 q 115 350 118 353 l 113 342 l 113 343 q 110 333 110 339 l 110 332 q 118 347 113 338 l 107 329 q 107 322 107 325 q 108 317 107 319 l 108 314 l 108 304 q 115 279 110 293 q 121 269 117 276 l 124 267 q 128 263 125 265 l 133 257 q 139 253 136 254 l 143 250 q 154 242 149 243 l 153 238 q 165 222 157 226 q 171 219 168 221 l 160 228 l 171 218 l 172 218 l 175 217 q 174 217 174 217 l 172 218 q 179 207 175 211 l 188 201 q 199 196 192 200 q 199 195 199 196 q 199 194 199 194 q 217 181 206 183 l 217 181 l 218 181 q 224 172 221 175 l 225 171 q 231 168 225 171 q 244 160 236 165 l 254 153 q 268 144 260 150 l 281 143 l 281 142 q 294 131 281 142 q 299 129 296 129 l 299 128 q 300 128 300 128 l 300 128 l 300 128 l 314 122 l 311 122 l 315 119 l 315 119 l 335 117 q 346 121 340 117 q 356 108 349 117 l 356 108 l 356 108 q 361 104 357 107 l 379 97 q 397 99 382 96 q 413 90 403 92 q 404 93 411 90 l 418 89 q 408 92 411 90 q 411 90 411 90 q 426 88 418 89 l 421 89 l 421 89 l 436 89 l 439 88 q 443 85 439 88 l 456 83 l 458 83 q 472 85 458 83 q 476 88 475 86 q 485 83 481 85 l 497 81 q 513 81 500 81 q 515 82 513 81 l 518 82 q 531 81 522 81 l 531 81 q 532 81 531 81 l 538 82 q 551 89 543 85 q 557 92 554 90 l 561 96 l 567 106 l 568 111 l 568 111 m 451 188 l 450 188 q 449 188 450 188 l 449 188 l 451 188 m 443 188 q 442 188 443 188 l 438 186 q 443 188 443 188 m 263 264 l 263 264 l 263 264 l 263 264 m 254 261 q 256 261 254 261 l 254 261 q 254 261 254 261 l 254 261 m 186 382 q 181 382 183 382 q 186 382 183 382 m 179 382 l 181 382 q 178 382 178 382 l 179 382 m 133 338 q 132 335 132 336 q 133 338 132 336 m 146 249 l 151 247 q 146 249 150 247 m 169 224 q 168 225 169 224 q 168 225 168 225 q 168 226 168 225 q 169 224 169 225 l 169 224 m 163 261 l 161 264 q 160 267 160 267 q 149 272 156 268 q 142 279 147 274 q 138 285 140 281 q 129 308 133 296 q 131 317 128 310 q 129 326 128 319 q 131 329 129 328 l 132 331 q 135 338 133 333 q 142 347 138 342 q 143 349 143 349 l 147 351 q 181 360 165 364 q 183 361 181 360 q 196 357 194 361 q 200 357 197 357 q 214 349 206 353 q 217 347 215 349 q 222 338 218 344 q 227 330 226 332 q 228 326 228 328 q 231 320 229 324 q 232 314 232 317 q 227 305 232 308 q 218 299 222 301 q 213 299 215 299 q 208 301 210 300 q 210 306 210 303 q 210 307 210 306 q 211 308 211 307 q 211 308 211 308 q 215 317 215 315 q 214 325 214 321 q 212 331 214 329 q 209 335 210 333 q 206 339 208 336 q 197 346 203 342 q 194 347 196 346 q 186 349 192 347 q 183 349 185 349 q 175 349 181 349 q 169 346 174 347 q 169 344 169 344 q 163 340 165 342 q 153 329 160 338 q 151 326 153 328 q 149 322 150 324 q 144 300 147 315 q 145 296 144 299 q 156 285 146 293 q 160 282 157 282 q 169 285 163 282 q 179 294 175 289 q 174 308 181 294 q 176 315 171 314 q 188 307 183 317 q 191 302 188 306 q 203 288 194 299 q 200 282 203 285 q 192 282 197 282 q 187 280 189 282 q 178 274 185 278 q 168 266 172 271 q 163 261 164 261 m 158 332 q 156 331 158 331 l 157 331 l 157 331 l 158 332 m 175 217 l 175 217 q 175 215 175 215 l 175 217 m 206 221 q 201 219 204 221 q 200 219 201 218 q 189 233 197 221 q 185 235 188 235 q 181 238 183 236 q 177 240 179 239 q 174 246 175 242 q 176 252 174 247 q 181 261 178 257 q 185 263 183 261 q 192 261 188 263 q 197 263 193 263 l 200 261 q 208 261 203 261 q 215 261 210 261 q 217 267 217 264 q 214 272 217 271 q 207 272 213 272 q 199 274 206 271 q 203 281 197 278 q 206 281 204 282 q 210 281 208 281 q 224 282 213 282 q 228 278 226 281 q 232 272 231 276 q 233 269 232 272 q 232 263 233 267 q 226 256 229 260 q 219 246 224 251 l 218 244 q 206 231 214 242 q 204 226 204 228 q 206 221 208 222 m 225 181 l 224 181 q 225 181 224 181 l 225 181 m 226 179 l 226 179 l 229 178 q 226 179 229 178 m 250 192 q 251 188 250 190 q 253 183 253 185 q 250 181 251 181 q 238 189 246 182 q 236 193 236 192 q 238 197 236 196 q 235 198 236 197 q 231 201 233 199 q 225 201 228 201 q 222 201 222 201 q 217 206 219 203 q 213 214 215 208 q 215 221 213 217 q 215 222 215 221 l 215 224 q 216 225 215 224 q 219 228 217 226 q 226 239 222 231 q 230 243 229 242 q 233 247 231 244 q 236 250 235 249 q 236 254 238 253 q 233 257 235 257 q 233 258 233 258 q 239 263 236 263 q 251 253 244 260 q 251 247 253 251 q 229 219 240 238 q 228 215 228 218 q 231 210 228 214 q 238 207 233 207 q 251 215 242 207 q 260 231 256 219 l 260 233 q 257 236 257 235 q 258 239 257 238 q 261 241 260 240 q 264 242 263 242 q 279 233 272 239 q 274 225 278 231 l 260 206 q 250 192 256 201 m 297 129 q 297 129 297 129 q 297 129 297 129 q 297 129 297 129 m 292 208 q 288 205 290 207 q 285 200 286 203 q 283 196 283 197 q 276 181 282 190 q 285 172 275 181 q 286 169 286 171 q 285 167 286 168 q 279 164 283 165 q 269 168 274 164 q 258 181 261 174 q 271 199 260 183 q 274 201 272 199 q 274 203 274 203 q 278 213 276 206 q 278 214 279 213 q 281 218 279 217 q 281 225 281 222 q 278 231 279 228 q 281 235 279 235 q 285 232 282 233 q 290 231 288 232 q 293 232 292 231 q 299 233 296 232 q 302 231 300 232 q 304 229 304 231 q 301 225 303 228 q 304 221 303 222 l 311 217 q 308 210 311 213 q 303 211 306 210 q 292 208 299 210 m 356 108 q 358 107 357 108 q 356 108 357 108 m 357 164 q 353 166 354 163 q 349 174 353 169 q 343 181 346 179 l 342 179 l 342 179 q 335 178 340 181 q 330 165 332 171 q 326 154 328 160 q 333 142 329 149 q 333 140 333 140 q 331 138 332 139 q 318 143 335 139 q 313 145 315 144 q 308 147 311 146 q 299 154 306 149 q 299 158 297 156 q 306 160 301 160 q 318 178 311 161 q 325 190 322 188 q 325 196 325 193 q 328 201 326 199 q 333 211 331 203 q 335 221 335 214 q 336 224 335 222 q 333 231 335 229 q 331 233 331 232 q 332 236 331 235 q 337 235 333 238 q 344 232 340 233 q 353 229 349 231 q 358 229 354 228 q 382 221 368 229 q 388 211 388 217 q 385 208 388 210 l 383 204 q 379 201 382 201 q 378 201 379 201 q 372 213 376 206 q 372 211 372 211 q 371 208 372 210 l 372 213 l 372 213 q 367 215 369 214 q 362 218 364 217 q 358 221 360 219 q 352 218 353 221 q 349 210 351 215 q 345 203 346 206 q 343 200 344 201 q 347 192 344 196 q 351 187 349 188 q 360 186 354 186 q 365 188 364 188 q 367 183 368 186 l 367 181 q 365 176 365 178 q 361 169 364 174 q 357 164 358 165 m 408 129 q 397 122 400 122 q 391 119 394 121 q 385 118 388 118 q 374 122 376 121 q 369 125 371 124 q 363 140 364 129 q 360 146 361 142 q 361 158 358 154 q 365 165 364 163 q 368 170 367 168 q 370 173 369 172 q 374 175 371 174 q 385 181 376 176 q 394 181 388 181 q 401 178 396 181 q 406 174 403 176 q 412 167 408 171 q 416 160 415 163 q 417 153 417 158 q 411 132 417 144 q 408 129 410 132 m 457 83 q 460 85 457 83 q 457 83 458 83 m 471 142 q 469 139 471 140 q 469 138 469 139 q 467 128 468 135 q 467 115 465 122 q 467 111 468 113 q 466 108 467 110 q 464 104 465 107 q 463 104 463 104 q 458 106 461 106 q 454 106 457 106 q 450 107 453 106 q 447 111 447 108 q 449 115 447 114 q 451 117 451 115 q 457 139 458 126 q 458 144 457 140 q 457 151 458 149 q 451 157 456 156 q 444 156 453 157 q 442 155 443 156 q 439 153 442 154 q 435 118 435 131 q 436 113 436 113 q 429 108 435 107 q 415 113 425 110 q 414 117 413 114 q 419 122 417 118 q 422 128 422 126 l 422 128 l 424 128 q 424 134 424 131 q 424 139 424 138 q 426 153 424 143 q 419 164 428 164 q 418 165 419 164 q 418 167 418 165 q 425 169 419 168 q 429 169 426 169 l 431 169 q 439 168 436 169 q 444 165 442 167 l 449 167 q 450 167 450 167 q 451 167 450 167 q 458 168 456 168 q 461 166 460 167 q 465 164 463 165 l 468 161 q 469 158 469 160 q 471 151 469 156 q 471 147 471 149 q 471 144 471 144 q 471 142 471 143 m 474 183 l 474 183 l 475 185 q 476 186 475 185 l 476 186 q 474 183 475 185 m 547 115 q 546 113 547 115 q 543 110 546 111 q 539 107 540 108 l 538 106 q 528 103 535 104 q 517 104 525 103 q 514 106 515 104 q 507 103 513 103 q 501 103 504 101 q 486 108 492 103 q 486 114 486 110 q 488 129 486 119 q 489 133 489 132 q 488 137 489 133 q 486 147 488 140 q 486 151 486 149 q 482 156 485 154 q 478 161 479 158 q 478 165 476 164 q 482 165 481 165 q 489 169 486 167 q 494 172 492 171 q 497 174 496 174 q 500 174 500 174 q 501 168 500 171 q 504 165 503 165 l 514 165 q 517 161 517 164 l 517 160 q 528 165 522 165 q 533 163 531 165 q 538 163 535 163 q 543 157 542 161 q 543 151 544 154 q 539 150 542 150 q 535 150 536 150 q 532 154 533 151 q 525 157 531 157 l 524 156 q 525 151 524 154 q 546 124 532 147 q 547 119 547 121 q 547 115 547 118 m 206 253 l 201 254 q 196 254 199 254 q 189 249 190 257 q 190 244 189 246 q 194 240 192 242 q 207 250 200 239 q 206 253 207 253 m 523 131 q 519 133 523 131 q 510 149 515 136 q 514 157 510 153 q 509 156 511 157 q 504 152 507 154 q 501 148 501 150 q 499 143 500 146 q 499 136 499 140 l 500 132 q 501 117 500 128 q 507 113 501 114 q 510 114 507 113 q 513 114 511 114 q 514 117 513 117 q 522 115 515 118 q 528 111 528 111 q 535 115 531 111 q 533 122 535 118 q 523 131 531 125 m 397 165 q 390 169 394 167 q 378 163 385 171 q 374 150 372 156 q 376 142 375 147 q 380 134 376 138 q 385 129 383 131 q 400 136 392 128 q 403 143 403 139 q 403 144 403 144 q 404 147 404 146 q 404 153 404 149 l 404 156 q 397 165 404 158 m 529 188 l 529 188 q 532 186 531 188 q 529 188 531 188 m 372 213 l 372 213 l 372 213 l 372 213 m 188 754 q 179 759 182 758 q 174 760 176 760 q 167 758 172 760 q 160 757 163 757 q 151 760 154 760 q 140 751 147 756 q 139 746 139 750 q 135 710 135 736 l 136 708 q 138 708 138 708 q 142 711 142 728 q 144 707 143 711 q 154 711 147 707 l 158 707 q 161 707 160 707 q 163 706 163 707 q 174 710 171 706 q 169 717 175 717 q 163 711 169 717 q 161 714 163 713 q 165 721 167 714 q 175 725 171 719 q 175 735 175 728 q 179 729 179 735 q 176 723 179 728 q 175 717 174 718 q 181 707 176 713 q 183 707 182 707 q 188 722 185 713 q 189 731 188 725 q 190 739 190 738 q 190 743 190 739 q 188 754 189 747 m 147 746 q 154 743 150 746 q 146 739 151 740 q 147 746 144 742 m 151 719 q 153 718 151 719 l 153 718 q 146 719 150 717 q 147 724 146 718 q 146 725 147 725 l 144 725 q 144 726 144 725 q 146 728 144 728 q 151 724 147 728 q 154 725 151 724 q 151 719 154 725 m 156 738 l 156 738 q 156 739 156 739 l 156 738 m 167 746 q 167 744 167 744 q 167 743 167 744 l 165 743 q 167 746 165 744 m 163 721 q 163 722 163 721 q 163 724 163 724 q 165 722 164 724 q 163 721 164 721 m 173 740 q 173 739 173 740 q 172 736 172 738 q 164 732 167 732 q 164 735 164 733 q 169 738 165 735 q 172 743 169 740 q 173 740 174 742 m 178 746 q 176 746 176 746 q 178 749 175 749 q 178 746 179 746 m 186 765 q 189 776 188 769 q 185 778 186 779 q 174 778 181 778 l 172 776 q 174 772 172 774 q 186 765 181 765 m 138 860 q 133 857 135 860 l 133 857 q 135 856 135 857 q 133 856 135 856 l 133 854 q 136 853 133 854 q 153 853 138 853 q 171 854 164 851 l 172 857 q 169 858 171 858 q 165 857 169 858 q 161 861 161 857 q 165 863 161 861 q 157 864 154 864 q 146 860 153 864 l 138 860 m 81 811 q 79 811 81 813 l 78 804 q 74 799 76 801 q 71 794 71 796 q 75 794 74 794 q 79 793 78 793 q 82 799 82 794 q 82 806 82 801 q 81 811 81 810 m 93 806 q 92 801 92 804 q 94 793 92 799 q 100 796 97 792 q 98 801 100 796 q 93 806 96 806 m 758 804 q 761 800 760 803 q 761 810 763 806 q 758 804 758 811 m 990 572 q 901 843 990 722 q 898 859 901 847 q 896 876 894 871 q 906 875 904 874 q 908 890 908 876 q 906 909 906 896 q 897 928 906 922 q 875 958 875 956 l 875 958 q 881 956 876 958 q 889 961 885 956 l 889 967 q 803 1021 854 1007 q 779 1033 775 1029 q 786 1038 783 1032 q 776 1049 788 1042 q 769 1050 774 1050 q 751 1045 763 1050 q 733 1040 739 1040 q 718 1049 725 1040 q 699 1060 710 1049 q 679 1074 683 1063 q 631 1101 667 1089 q 626 1099 629 1100 q 649 1074 633 1089 q 632 1086 643 1076 q 582 1107 610 1093 q 558 1111 574 1106 q 508 1111 549 1113 q 503 1104 506 1110 q 506 1101 507 1103 q 508 1101 507 1101 q 493 1101 503 1101 q 436 1088 472 1100 q 408 1078 424 1086 q 410 1069 410 1081 q 360 1043 386 1050 q 324 1014 344 1036 q 328 1006 321 1007 q 335 1003 335 1004 q 300 981 322 999 l 294 969 q 196 892 239 938 q 178 895 183 894 q 172 896 172 896 q 147 894 164 896 q 138 894 142 894 q 122 896 132 894 q 109 896 113 896 q 103 896 106 896 q 68 893 90 893 q 31 890 63 893 q 21 889 25 889 q 17 890 18 890 q 3 882 13 890 q 0 867 0 874 q 1 860 0 863 q 0 850 0 856 l 0 840 q 1 833 1 838 q 0 825 1 831 q 1 822 0 824 q 0 818 0 819 q 0 814 0 814 q 1 806 1 808 q 1 786 0 799 q 3 768 3 772 q 1 757 3 761 q 3 721 3 739 q 11 688 4 694 q 17 686 14 686 q 24 688 19 686 q 32 688 29 689 l 51 688 q 69 686 64 688 q 86 688 76 688 q 81 686 85 688 q 67 572 67 631 q 96 411 67 489 q 94 411 94 411 q 86 403 88 408 q 85 396 85 399 l 85 394 q 85 388 83 392 q 89 381 86 386 q 90 379 90 381 q 101 371 96 371 q 107 369 107 371 q 118 375 113 369 q 128 392 124 381 q 128 394 128 393 q 122 408 125 403 q 106 414 115 414 l 104 413 l 103 413 q 74 572 74 489 q 89 688 74 631 l 103 688 l 104 688 q 146 690 90 688 q 153 689 149 689 q 161 689 160 690 q 183 685 169 689 q 197 688 192 686 q 202 698 201 690 q 204 721 203 706 l 204 747 q 206 765 204 753 q 208 782 208 776 q 207 790 208 788 q 204 810 204 799 q 204 842 204 839 q 203 847 203 844 q 203 851 203 849 q 203 856 204 854 l 203 881 q 201 886 201 885 l 201 888 l 201 888 q 286 957 240 926 q 272 931 282 947 q 279 917 271 921 q 275 892 279 897 q 281 843 263 865 q 278 838 281 839 q 269 793 276 838 q 265 774 269 786 l 265 757 q 235 753 239 757 q 221 742 232 749 q 215 722 221 735 q 218 674 214 685 q 222 653 217 664 q 233 635 232 636 q 239 615 239 628 q 238 601 239 611 q 236 585 236 590 q 240 567 236 575 q 263 508 243 558 q 332 414 286 476 q 338 357 333 399 q 347 333 340 344 q 396 290 363 306 q 454 278 421 278 q 493 283 474 278 l 503 286 q 572 339 546 306 q 582 344 578 342 q 632 364 597 353 q 664 374 638 368 q 710 396 686 378 q 754 431 733 414 q 765 447 761 439 q 810 422 781 422 q 824 425 817 422 q 822 424 824 425 q 815 403 819 414 q 807 386 810 393 q 778 351 794 368 q 688 281 739 310 q 779 315 735 290 q 707 185 746 231 q 647 138 693 168 q 586 92 600 108 q 707 147 692 138 q 747 181 726 164 q 726 113 728 115 q 707 86 724 106 q 594 0 664 56 q 740 92 701 42 q 806 219 753 107 q 811 186 811 200 q 790 125 811 160 q 861 204 815 151 q 894 271 881 228 q 953 194 918 228 q 911 314 921 254 q 990 572 990 431 m 197 772 q 196 761 197 768 q 196 754 196 757 q 194 746 196 750 q 193 704 196 732 q 188 697 190 701 q 182 692 186 693 q 153 694 172 692 q 125 696 135 696 q 115 696 119 696 q 96 693 108 693 q 76 693 81 694 q 64 696 71 693 q 51 697 60 694 q 39 699 50 697 q 28 697 36 699 q 17 694 19 694 q 15 710 17 697 q 17 717 15 714 q 18 717 18 717 l 19 714 q 29 699 25 699 q 35 703 31 700 q 35 711 35 706 q 36 719 36 717 q 35 727 36 724 q 29 747 33 731 q 30 749 29 749 q 29 751 31 750 q 33 750 31 751 q 37 733 35 743 q 39 708 39 724 q 43 703 40 706 q 47 706 46 704 q 50 710 49 707 q 44 756 49 724 q 40 774 42 765 q 38 785 39 778 l 36 797 q 35 811 35 801 q 35 825 35 817 q 35 842 35 829 l 35 856 q 36 871 35 864 q 29 876 32 876 q 15 871 26 876 q 14 863 15 868 q 14 853 14 856 q 15 844 14 849 q 14 829 15 840 q 14 814 14 825 l 15 800 q 17 790 15 797 q 14 782 17 785 q 16 764 14 774 q 19 742 18 754 l 21 733 q 17 726 21 729 q 14 731 15 726 q 10 776 14 758 q 8 794 10 782 q 7 811 7 806 q 6 833 6 819 q 7 856 7 847 q 13 875 7 863 q 13 882 13 881 q 24 885 17 882 q 44 886 26 885 q 51 888 46 889 q 58 888 56 888 q 60 885 60 886 q 58 882 60 883 q 56 882 57 882 q 46 875 51 883 q 44 860 46 869 q 42 846 42 850 q 42 822 42 833 q 38 818 38 819 q 41 812 40 815 q 43 802 42 808 q 44 793 44 796 q 44 790 44 792 q 49 765 44 796 q 53 751 51 761 l 54 740 q 58 725 57 735 q 60 714 60 715 q 61 711 60 713 q 67 724 63 717 q 74 719 65 724 q 78 722 74 719 q 85 722 81 725 q 89 719 86 721 q 86 714 89 717 q 83 714 85 714 q 74 718 78 714 q 69 711 71 717 l 71 704 q 74 700 71 701 q 110 701 81 700 q 129 708 124 701 q 129 713 129 711 q 128 726 129 717 q 126 742 126 736 q 126 746 126 744 q 128 751 128 747 l 128 758 q 132 763 129 761 q 146 765 142 764 q 153 769 150 765 q 150 781 153 774 q 144 782 147 782 q 139 781 142 782 q 126 781 135 782 q 114 779 117 779 q 106 782 110 779 l 104 781 l 101 781 q 100 778 100 781 q 96 775 100 775 q 94 776 94 775 q 90 781 93 778 l 83 781 q 78 778 79 781 q 78 775 78 776 q 78 772 79 774 q 74 778 76 774 q 66 784 67 781 q 61 793 65 788 q 71 811 63 792 q 75 822 75 819 q 69 818 69 818 q 68 819 69 819 q 64 818 67 818 q 61 826 58 818 q 65 829 61 826 q 69 835 69 832 l 71 836 q 78 828 74 826 q 79 840 78 833 q 82 849 81 847 l 90 850 q 88 840 89 847 q 85 833 88 839 l 85 826 l 89 826 q 93 829 92 828 q 103 843 96 836 q 102 835 103 840 q 103 828 101 831 q 111 824 110 828 q 110 821 111 821 q 97 814 97 819 q 101 808 97 814 q 108 794 104 803 q 114 792 111 792 q 117 794 114 792 q 122 796 121 797 q 122 790 122 794 q 119 789 121 790 q 125 788 121 786 l 133 788 q 138 789 135 788 q 142 789 140 789 q 156 789 151 789 q 163 789 161 789 q 175 788 167 789 q 188 786 183 786 q 192 786 190 786 q 194 792 193 788 q 194 797 194 797 q 193 800 194 797 q 192 806 192 803 q 193 810 193 808 q 190 829 193 815 q 185 831 188 831 q 176 829 182 831 q 167 829 171 828 l 167 828 q 165 822 165 825 q 167 801 168 804 l 164 801 q 161 812 163 806 q 157 821 160 818 q 146 818 153 821 q 143 819 146 818 q 140 818 142 819 q 138 799 140 803 q 132 810 132 800 l 132 825 q 128 829 131 825 q 140 836 129 833 q 153 839 144 836 q 154 839 154 839 q 158 838 156 839 q 163 840 160 838 q 171 838 165 840 l 188 838 q 189 843 189 840 q 188 849 189 844 q 188 855 188 853 q 188 858 188 857 l 186 860 q 185 879 188 867 q 179 882 183 881 l 174 882 q 140 881 165 883 q 125 882 135 882 q 103 881 115 882 q 99 881 100 881 q 93 882 96 881 q 81 881 86 881 q 73 880 76 881 q 68 874 69 879 q 67 868 67 868 q 79 864 67 864 q 83 867 81 865 q 92 865 89 865 q 103 863 94 864 q 100 858 103 860 l 81 858 q 66 851 71 858 q 56 822 61 843 q 56 818 56 821 q 54 813 54 814 q 56 808 54 810 q 56 804 54 804 q 54 804 54 804 q 51 807 51 804 l 50 814 q 53 835 50 822 q 57 857 54 842 q 61 874 61 863 q 60 886 61 879 l 61 888 q 74 888 65 888 l 85 886 q 94 887 90 886 q 107 890 99 888 q 138 889 118 888 l 168 889 q 171 889 169 889 q 176 888 172 889 q 181 886 179 886 q 183 888 182 886 q 193 885 188 888 q 199 878 194 882 l 199 856 q 200 832 199 842 q 197 772 200 806 m 19 826 q 19 839 19 832 q 22 850 19 843 q 24 847 24 850 l 24 843 q 28 813 26 835 q 29 807 29 810 q 26 800 29 800 q 22 804 24 801 q 19 826 21 794 m 63 749 q 65 756 63 753 q 69 744 67 756 q 69 740 69 743 q 69 736 69 738 q 67 733 69 733 q 64 736 65 733 q 64 743 64 739 q 63 749 63 747 m 97 747 q 88 751 93 750 l 82 751 q 78 755 79 751 q 76 764 78 758 q 78 767 76 767 q 82 758 78 761 q 97 761 88 758 q 100 754 100 757 q 97 747 100 751 m 106 715 q 101 713 104 714 q 99 714 99 713 q 100 721 97 718 q 106 715 106 721 m 114 743 q 115 750 114 747 q 118 746 117 750 q 117 742 118 743 q 114 743 115 742 m 117 822 q 118 828 117 825 q 119 825 119 826 q 118 822 118 824 l 117 822 m 179 869 q 181 867 181 868 q 179 863 181 865 q 182 857 181 860 q 181 851 182 853 q 178 847 181 849 l 172 846 q 164 845 169 846 q 150 843 158 844 q 121 836 132 843 q 121 840 121 838 q 125 863 121 846 q 134 872 129 871 q 144 874 139 872 q 150 873 147 874 q 154 871 153 872 q 179 869 163 869 m 175 874 q 176 876 175 875 q 179 875 178 876 q 176 872 179 874 q 175 874 176 872 m 890 883 q 883 894 885 889 q 890 883 890 885 m 747 924 q 722 939 742 933 q 731 943 724 943 q 739 948 738 943 q 750 954 740 953 q 770 945 760 950 q 790 944 781 940 q 786 956 793 950 q 751 967 775 960 q 742 971 746 971 q 800 964 761 971 q 803 969 803 967 q 793 978 799 972 l 785 982 q 831 963 801 978 q 843 964 838 957 q 839 976 847 971 l 836 981 q 858 968 840 982 q 864 956 860 968 q 847 956 849 958 q 850 939 850 950 q 840 942 846 939 q 833 946 835 946 q 826 942 829 946 q 829 933 826 938 q 828 932 828 932 l 829 931 q 815 926 817 932 q 815 896 818 917 q 808 907 813 897 q 796 917 804 917 q 789 907 790 915 q 790 893 790 894 q 776 900 782 901 q 771 881 768 894 q 775 861 775 861 l 775 863 q 760 888 768 872 q 739 900 754 899 q 718 922 733 913 q 729 920 721 924 q 740 917 738 917 q 747 924 746 917 m 858 825 l 857 822 l 856 825 l 858 825 m 550 1096 q 592 1079 565 1093 q 563 1089 589 1081 q 536 1096 553 1089 q 550 1096 542 1096 m 493 1083 q 504 1085 503 1085 q 511 1079 507 1083 q 501 1081 507 1079 q 493 1083 496 1083 q 489 1083 492 1082 q 493 1083 492 1083 m 476 1083 q 472 1083 472 1082 q 476 1083 472 1083 m 468 1082 q 461 1081 461 1081 q 468 1082 461 1083 m 454 1083 l 454 1079 q 444 1081 446 1079 q 454 1083 446 1083 m 410 1043 q 432 1057 426 1057 l 428 1051 q 426 1039 421 1044 q 438 1039 432 1033 q 483 1060 449 1049 l 475 1057 q 465 1047 471 1054 q 468 1042 465 1044 q 526 1053 481 1046 q 517 1047 522 1053 q 482 1035 506 1043 q 479 1022 476 1029 q 499 1025 489 1019 q 519 1036 510 1031 q 531 1031 524 1036 q 539 1026 532 1026 q 547 1022 546 1026 q 524 1004 529 1015 q 531 999 526 999 q 542 1003 535 999 q 553 1007 550 1007 q 533 983 539 996 q 513 969 518 979 q 501 942 508 960 l 500 940 q 503 961 500 940 q 496 979 506 975 q 482 972 492 981 q 483 986 482 974 q 475 996 482 994 q 465 985 468 994 q 457 972 461 975 q 456 1004 457 983 q 442 1007 454 1008 l 442 1007 q 442 1008 443 1008 q 443 1018 444 1014 q 438 1022 440 1022 q 429 1018 435 1022 q 421 1014 424 1014 q 422 1031 424 1019 q 406 1029 421 1033 q 410 1043 404 1035 m 293 868 l 294 872 l 293 868 l 293 868 m 256 656 q 249 660 254 654 q 240 729 238 704 q 247 735 244 735 q 244 725 244 732 q 253 714 246 724 q 267 706 260 704 q 271 696 268 701 q 274 686 274 690 q 265 668 274 679 q 256 656 257 657 m 553 360 q 503 340 536 353 q 490 339 500 342 q 476 385 476 351 q 483 401 486 393 q 458 405 476 407 q 432 407 440 403 q 422 415 429 408 q 410 421 414 421 q 401 417 406 421 q 401 404 397 411 q 411 396 406 400 q 397 363 407 363 q 389 369 393 363 q 349 431 349 375 q 361 501 349 463 q 375 467 365 493 q 429 425 396 432 q 488 421 467 408 q 543 458 508 426 q 556 464 549 460 q 568 396 568 422 q 569 388 569 392 q 553 360 569 375 m 389 494 q 413 486 401 492 q 454 478 432 482 q 493 478 476 475 q 515 476 501 474 q 536 481 533 481 l 536 479 q 533 476 535 475 q 517 463 528 467 q 497 457 507 460 q 406 471 453 449 q 389 494 397 478 m 596 499 q 599 500 597 500 q 607 493 607 500 q 599 458 607 481 q 597 454 599 456 q 596 499 599 488 m 810 435 q 772 463 783 435 l 772 463 l 776 471 l 776 471 q 779 463 778 467 l 779 463 l 781 463 q 806 443 786 450 q 810 443 808 443 q 840 474 838 443 q 810 506 840 506 l 808 506 q 810 514 804 510 q 840 497 828 514 q 849 474 847 489 q 810 435 849 435 m 810 467 q 815 456 811 460 q 810 454 811 454 q 792 465 797 454 l 788 471 q 790 472 789 472 q 810 467 799 467 m 807 493 q 810 494 808 494 q 814 493 811 494 q 807 493 811 493 m 819 471 l 828 472 q 829 471 828 471 q 825 461 828 465 q 819 471 822 467 m 817 525 q 803 510 803 525 l 803 507 q 807 496 801 499 l 807 496 q 791 508 800 497 q 774 518 782 519 q 764 506 771 518 q 738 447 761 471 q 685 410 722 429 q 608 379 671 400 q 596 374 606 375 q 603 436 601 410 q 619 448 614 438 q 631 467 625 458 q 633 497 631 464 q 624 522 636 514 q 575 521 607 518 q 522 572 554 531 q 504 578 506 579 q 451 568 482 554 q 433 579 444 569 q 411 586 421 589 l 382 563 q 336 561 346 553 q 325 559 329 564 q 318 550 321 554 q 319 536 317 544 l 322 517 q 314 529 318 517 q 304 558 318 535 q 294 557 303 560 q 292 547 292 553 q 298 531 292 542 q 305 515 304 521 q 314 501 306 508 q 324 513 317 500 q 339 488 328 503 q 339 436 338 465 q 315 483 325 471 q 285 529 307 492 q 278 569 283 532 q 276 610 272 594 q 296 669 278 625 q 300 678 299 674 q 304 669 300 674 q 336 665 322 658 q 355 658 346 665 q 372 643 364 650 q 382 636 375 643 q 396 631 389 629 q 397 642 404 636 q 378 657 392 647 q 376 659 378 658 q 374 661 374 660 q 404 650 393 660 l 408 650 q 404 667 410 654 q 413 664 401 664 q 431 635 432 646 l 432 632 q 481 631 476 632 q 490 636 476 631 q 504 628 497 625 q 508 635 508 632 q 499 645 508 639 q 488 654 489 651 q 401 732 475 667 q 408 729 404 733 q 415 724 411 725 q 485 667 418 722 q 507 642 494 660 q 514 635 508 640 q 522 631 519 631 q 526 633 525 631 q 513 653 524 642 q 493 671 493 669 q 417 739 485 676 q 431 736 424 742 q 446 725 439 731 q 494 684 475 699 q 543 633 513 669 q 572 603 557 615 q 581 607 576 600 q 571 624 582 614 q 558 638 560 633 q 592 628 556 638 q 597 635 593 631 q 632 624 628 624 q 650 617 636 624 q 671 610 664 610 q 688 617 681 610 q 693 610 686 617 q 696 606 694 608 q 699 603 697 604 q 702 603 700 603 q 706 601 704 603 q 721 605 710 601 q 738 617 732 608 q 731 629 738 626 q 714 625 735 628 q 704 623 711 625 q 693 622 697 621 q 696 638 696 639 q 685 644 692 647 q 664 633 675 629 q 657 639 657 640 q 636 650 647 639 q 619 664 625 661 q 560 714 599 681 q 564 718 560 715 q 588 704 576 717 q 607 685 606 686 q 615 679 608 685 q 622 681 619 676 q 588 717 610 693 q 603 724 594 717 q 611 714 603 724 l 650 672 q 671 647 657 664 q 678 650 676 646 q 668 669 678 653 q 628 708 654 682 q 640 732 624 724 q 660 738 650 735 q 675 732 669 738 q 686 719 681 726 q 699 704 690 719 q 714 690 708 689 q 717 703 718 696 q 708 724 708 711 q 710 740 708 729 q 713 756 713 751 q 700 771 713 768 q 662 774 697 775 q 622 775 626 772 q 578 751 593 763 q 561 737 574 743 q 546 728 549 731 q 521 739 539 735 q 561 700 521 724 q 576 683 565 694 q 561 690 576 683 q 532 714 553 700 q 496 739 521 726 q 510 719 494 733 q 568 668 531 704 l 569 665 q 554 671 561 664 q 540 685 547 678 q 467 746 515 706 q 456 753 464 746 q 442 760 449 760 q 453 740 442 754 q 546 663 501 710 q 533 661 543 657 q 489 699 521 676 q 432 746 471 715 q 406 756 428 754 q 379 765 385 758 q 363 772 367 772 q 329 772 358 768 q 308 756 324 767 q 299 747 306 750 q 293 740 293 743 q 297 729 293 736 q 340 696 313 719 l 340 694 l 342 694 q 326 697 336 692 q 311 699 317 701 q 314 689 313 694 q 300 685 308 689 q 292 726 300 679 q 304 806 293 758 q 315 856 308 822 q 331 894 324 875 q 371 949 347 928 l 376 950 l 389 953 l 401 951 l 414 946 l 428 949 l 442 946 l 449 933 l 465 933 l 474 922 l 482 911 l 478 913 l 483 899 l 478 885 l 479 871 l 485 876 l 490 886 l 500 893 l 508 900 l 517 913 l 528 919 l 540 925 l 553 929 l 568 924 l 581 929 l 593 929 l 606 931 l 619 933 l 633 931 l 647 936 l 660 929 l 675 929 l 681 929 q 704 914 693 922 l 704 913 l 714 904 l 721 894 l 732 886 l 735 883 q 761 810 761 850 l 763 810 q 764 797 767 806 q 761 800 764 799 q 758 782 761 794 q 779 769 764 783 l 776 769 q 764 774 772 771 q 758 764 758 768 q 769 751 758 760 q 779 739 779 743 l 769 739 q 764 731 764 735 q 776 717 764 724 q 789 706 788 710 q 775 706 785 710 q 769 696 769 700 q 781 683 769 690 q 792 669 792 675 q 790 671 792 669 q 778 668 785 676 q 781 658 775 663 q 792 650 788 654 q 813 632 797 639 q 815 643 819 633 q 825 642 819 642 q 832 656 832 643 q 839 654 829 654 q 892 653 861 667 q 921 600 917 635 q 914 556 924 579 q 899 558 906 558 q 890 556 892 558 q 887 551 888 553 q 883 540 886 550 q 896 526 883 528 q 894 525 894 526 q 865 535 881 535 q 850 517 858 535 q 850 513 850 514 q 817 525 836 525 m 339 532 q 335 518 336 526 l 335 518 q 336 532 335 531 l 339 533 l 339 532 m 418 679 q 446 661 426 671 q 449 665 446 661 l 422 693 q 389 722 410 701 q 394 719 390 722 q 476 647 425 699 q 461 650 471 647 q 446 650 451 651 l 435 661 q 394 694 408 679 q 343 733 376 707 q 335 739 340 733 q 325 739 329 743 q 326 733 325 738 q 361 701 339 724 q 383 685 365 701 q 374 688 379 685 q 367 693 369 692 q 310 736 346 706 l 311 739 q 325 744 317 744 q 357 729 325 744 q 418 679 378 713 m 365 739 q 388 724 367 739 q 365 739 379 728 m 858 443 q 851 444 854 443 q 856 451 853 447 q 858 451 856 451 q 889 483 889 451 q 858 514 889 514 l 857 514 q 858 522 853 518 q 897 483 897 522 q 858 443 897 443 m 856 496 l 861 496 q 876 479 865 485 q 874 472 876 475 q 860 484 861 478 q 856 496 858 490 m 908 482 q 921 496 914 485 q 922 501 921 499 q 922 507 922 504 q 890 539 922 539 l 890 539 q 889 544 888 540 l 889 544 q 890 547 889 544 q 931 507 931 547 q 926 490 931 497 q 915 476 922 482 l 915 476 q 908 472 911 474 q 908 482 908 476 m 908 515 l 908 515 q 911 507 911 511 l 911 507 q 908 515 910 511 m 908 328 q 908 329 908 328 q 917 463 921 385 q 942 507 942 478 q 931 539 942 525 q 943 582 938 549 q 935 638 943 601 q 890 674 919 665 q 882 688 881 678 q 886 704 886 704 q 883 717 886 710 q 879 729 879 725 q 888 751 883 740 q 886 775 892 765 q 892 803 893 782 q 899 831 890 824 q 900 833 899 832 q 982 572 982 715 q 910 325 982 439 q 908 328 908 326 z "}}}
